<?xml version="1.0" encoding="UTF-8" standalone="no"?>
<svg
   version="1.1"
   width="52.7559in"
   height="30.9470in"
   viewBox="0 0 3798.4224 2228.1806"
   id="svg54"
   sodipodi:docname="kzmap2.svg"
   inkscape:version="1.4.2 (f4327f4, 2025-05-13)"
   xmlns:inkscape="http://www.inkscape.org/namespaces/inkscape"
   xmlns:sodipodi="http://sodipodi.sourceforge.net/DTD/sodipodi-0.dtd"
   xmlns="http://www.w3.org/2000/svg"
   xmlns:svg="http://www.w3.org/2000/svg">
  <defs
     id="defs54">
    <linearGradient
       id="swatch60"
       inkscape:swatch="solid">
      <stop
         style="stop-color:#ffec2d;stop-opacity:1;"
         offset="0"
         id="stop60" />
    </linearGradient>
    <rect
       x="3827.9798"
       y="2152.2778"
       width="768.67064"
       height="142.20407"
       id="rect55" />
  </defs>
  <sodipodi:namedview
     id="namedview54"
     pagecolor="#ffffff"
     bordercolor="#000000"
     borderopacity="0.25"
     inkscape:showpageshadow="2"
     inkscape:pageopacity="0.0"
     inkscape:pagecheckerboard="0"
     inkscape:deskcolor="#d1d1d1"
     inkscape:document-units="in"
     inkscape:zoom="0.26018946"
     inkscape:cx="2532.7698"
     inkscape:cy="1485.456"
     inkscape:window-width="1920"
     inkscape:window-height="991"
     inkscape:window-x="-9"
     inkscape:window-y="-9"
     inkscape:window-maximized="1"
     inkscape:current-layer="svg54" />
  <path
     d="  M814.1822,798.3582 C809.7777,829.2482 800.8666,804.6577 808.6089,857.7086 C811.7456,879.1998 829.0263,856.2456 808.8584,898.9541 C800.6934,916.2457 810.4859,914.6740 808.9333,929.7713 C802.9655,935.2535 786.1229,944.9026 776.5031,941.0877 C767.7449,937.6146 755.0246,928.9824 746.5056,927.2849 C738.5413,937.7858 741.1016,934.7667 731.5180,942.0927 C740.9491,963.9742 734.6939,953.2044 730.8571,972.5396 C729.8715,977.5080 737.8788,986.8838 743.8436,995.6536 C748.9430,1003.1507 760.3399,1008.4862 761.9713,1015.5821 C763.7040,1023.1190 762.4590,1043.0581 763.5278,1052.7752 C771.0802,1057.3669 792.6874,1073.3875 799.6974,1074.8047 C804.6663,1069.0151 810.8879,1058.7788 816.4151,1055.3153 C817.2633,1055.1359 840.3112,1063.0604 842.6612,1074.3354 C847.0566,1095.4261 842.0167,1095.1677 832.2026,1105.3533 C835.5443,1110.7867 839.7214,1110.8347 841.0022,1117.6922 C841.9012,1122.5065 840.8690,1131.9395 841.2016,1137.6972 C845.8241,1142.5023 848.3757,1140.4220 849.3726,1148.6207 C850.1080,1154.6661 848.5743,1162.3519 850.2092,1168.1122 C853.8439,1180.9196 861.3019,1168.2856 858.2463,1196.7316 C855.7498,1219.9695 853.7534,1244.0802 851.8079,1267.1915 C850.8869,1278.1325 847.1066,1293.0381 851.5098,1302.4077 C855.2044,1310.2703 860.7139,1319.5321 864.9163,1327.2624 C882.5395,1359.6809 876.7440,1356.6606 900.2679,1368.4625 C917.8850,1377.3012 934.2176,1385.7671 951.9256,1394.6827 C965.1964,1401.3643 967.6296,1398.0576 971.6770,1413.2103 C973.0013,1418.1700 974.1132,1423.6815 976.6519,1428.1299 C978.9959,1432.2373 981.9693,1434.2945 983.9130,1439.3158 C989.6099,1454.0315 1003.1883,1554.6196 1001.9795,1574.4700 L1004.2593,1580.3120 C1016.8814,1579.3441 1118.2682,1557.9612 1138.8859,1553.7381 L1173.6115,1548.3445 C1180.0597,1548.6121 1179.9003,1550.3065 1183.8693,1547.6241 L1217.6229,1494.9963 C1234.6697,1470.1351 1222.5362,1487.5166 1237.3652,1470.3573 C1243.3887,1463.3871 1249.3859,1453.0972 1255.1341,1445.2508 C1262.5038,1435.1909 1268.1511,1430.6503 1275.7694,1421.5011 C1308.1919,1382.5665 1303.1175,1388.6849 1330.1029,1388.0151 C1345.8232,1387.6248 1353.4351,1392.3094 1366.5715,1394.5967 C1372.5868,1386.2299 1387.7609,1342.9394 1393.1790,1329.4938 C1398.5688,1316.1193 1413.6020,1273.6936 1419.5186,1265.6434 C1429.2306,1264.7929 1473.2684,1265.5932 1477.7134,1269.9770 C1483.4870,1275.6718 1493.5160,1302.2523 1500.1146,1310.4370 C1510.2625,1318.4362 1500.8642,1298.7456 1528.7486,1335.3144 C1540.4763,1350.6946 1526.6252,1357.6267 1544.3845,1373.5343 C1548.4530,1371.5046 1572.8781,1349.0316 1577.0591,1344.8355 C1598.9761,1322.8388 1674.7074,1269.6801 1677.5636,1265.5329 C1671.7013,1252.6142 1647.1387,1215.6970 1644.3803,1208.8666 C1640.5552,1199.3961 1645.1321,1191.0681 1637.9067,1186.1919 C1633.4871,1183.2091 1622.7261,1180.3573 1616.7862,1176.7689 C1610.4242,1172.9252 1605.6466,1169.7377 1598.9080,1165.6197 C1553.8454,1138.0801 1571.5405,1135.9928 1572.5516,1128.1782 C1574.0779,1116.3811 1560.7593,1134.2254 1558.0625,1134.1914 C1539.4782,1126.2642 1528.6263,1100.7822 1520.2222,1076.0896 C1514.1828,1073.2609 1507.3318,1079.6111 1508.8620,1065.4189 C1509.7658,1057.0350 1515.3012,1056.6308 1518.5292,1049.9064 C1515.3658,1041.8666 1507.9487,1033.7530 1504.9775,1026.5794 C1500.0159,1014.6024 1512.5156,1010.8700 1517.3634,1006.7809 C1517.3350,994.9467 1515.2236,993.9474 1522.2112,987.4029 C1542.1495,968.7291 1528.8593,976.7785 1535.6445,964.0567 C1543.5647,949.2065 1552.9885,957.7615 1556.3212,959.0023 C1554.5605,941.2492 1537.0497,912.8958 1528.6810,897.9286 C1511.7212,867.5983 1517.1924,865.8144 1510.4051,848.5642 C1507.4727,841.1112 1509.9334,846.0818 1503.9694,843.0632 L1500.9956,841.3623 C1500.9852,841.3553 1498.9497,839.5089 1498.5641,839.2025 C1498.8644,830.1471 1503.8358,824.8338 1508.7508,818.8774 C1505.4673,811.5510 1498.1471,806.9891 1494.4103,800.1748 C1488.5131,789.4194 1496.9921,786.1175 1485.1137,776.0877 C1469.7168,784.3000 1467.1148,772.9347 1462.2748,750.7275 L1452.5839,752.4573 C1413.6770,822.8762 1452.3034,813.4524 1402.0376,842.5633 C1379.8281,855.4261 1376.5630,854.3120 1346.1989,850.3076 C1331.8532,848.4158 1329.1064,847.9434 1322.2029,839.0933 C1319.0498,835.0514 1308.5857,823.0757 1305.7807,821.0521 C1302.0582,828.9993 1302.6574,841.0562 1288.4703,852.1600 C1283.5919,855.9784 1281.1936,854.7066 1274.3853,854.9660 C1259.3774,855.5383 1261.4337,852.1927 1253.4376,845.7517 C1244.2546,838.3550 1242.6503,846.8729 1228.7833,836.8981 C1215.6469,827.4495 1220.8337,842.0320 1196.0372,823.8816 C1191.1886,820.3326 1191.3312,818.3391 1187.8783,815.1389 C1179.5130,807.3855 1175.6522,817.1782 1169.0144,800.3970 C1165.1583,790.6484 1165.4883,782.0725 1162.6295,772.9687 C1159.6462,771.3948 1158.5140,771.9017 1155.9654,770.5526 C1151.4847,768.1815 1153.1850,767.2289 1149.7434,765.7597 C1144.4290,763.4908 1145.4961,765.6969 1143.3507,766.4810 L1133.4729,768.1784 C1131.2443,765.5484 1129.1752,762.7918 1126.4478,760.6451 L1109.8908,763.6427 C1106.6163,769.2869 1110.7335,768.9630 1104.4360,775.0102 C1095.4250,783.6634 1078.2291,783.3307 1065.6041,769.7004 C1049.7019,752.5319 1052.5435,746.3577 1032.5685,751.5400 C1026.7239,753.0563 1022.2487,752.1525 1017.1183,751.5540 C1011.3658,765.0555 1004.9999,756.9249 994.7640,756.2194 C992.4838,760.1434 990.4289,763.5091 988.3839,766.7709 C963.5818,766.5880 963.6443,761.1991 964.8815,774.6609 C966.4402,791.6194 964.3008,793.6386 953.2516,798.9969 C939.6409,805.5968 929.3021,819.5751 915.7707,815.3546 C909.7864,813.4882 909.7054,809.2524 905.3492,805.8265 C899.7195,801.3986 899.8931,804.2578 894.5029,798.2499 C884.8318,787.4705 887.8164,801.7046 873.6625,782.4335 C865.4523,771.2542 862.1889,771.4804 858.9235,760.2801 C856.5648,752.1910 856.9375,755.8291 849.9396,751.0977 C837.0246,742.3659 832.3133,713.4842 831.9174,751.1781 C831.7809,764.1906 834.2825,760.4949 835.3014,769.6650 C836.6489,781.7970 824.6838,789.6316 813.8699,792.0665 L814.1822,798.3582 Z"
     style="fill-rule:evenodd;fill:#00abc2;fill-opacity:1"
     id="path1" />
  <path
     d="  M2544.4005,1457.5582 C2548.0519,1455.3290 2549.3616,1455.7979 2553.8342,1454.9727 C2552.4310,1443.1564 2545.9393,1443.0883 2556.1493,1432.8721 C2557.7398,1431.2803 2566.5307,1414.1808 2572.1858,1431.3070 C2581.2413,1429.4218 2576.6864,1427.8959 2589.2688,1427.8771 C2586.3028,1421.6954 2583.6163,1417.3597 2586.6483,1409.7451 C2587.7774,1406.9086 2594.6077,1400.1619 2596.7574,1398.8893 C2602.0847,1395.7367 2606.7145,1396.8434 2614.2833,1395.3599 C2621.7232,1393.9012 2615.4090,1393.8912 2630.5288,1388.2452 L2631.8940,1380.5211 C2640.3937,1379.6833 2642.9936,1378.3914 2646.4938,1370.4935 C2652.2045,1357.6084 2665.2987,1347.7572 2675.5669,1350.0812 C2690.2503,1353.4040 2682.0758,1346.6937 2692.2225,1344.7687 C2696.4465,1343.9676 2698.7724,1344.7434 2701.4072,1346.6352 C2706.5134,1350.3016 2701.3714,1349.3927 2708.7191,1351.5581 C2716.0522,1353.7188 2721.8370,1353.3377 2730.0240,1356.3528 C2753.7146,1365.0776 2748.7660,1361.4338 2769.6176,1353.8668 C2777.5374,1350.9928 2777.2703,1348.9818 2788.2329,1349.9091 C2800.1325,1350.9155 2794.8836,1342.4539 2806.3278,1348.1706 C2820.6098,1355.3045 2835.4435,1345.5210 2849.2382,1357.1028 C2854.4591,1361.4862 2850.4780,1359.7106 2854.5134,1363.9564 C2856.5493,1366.0988 2861.0236,1368.3066 2863.9255,1368.6297 C2874.3461,1369.7888 2869.7995,1360.4681 2892.9748,1371.4981 C2898.2405,1374.0041 2898.4813,1374.3617 2901.4358,1373.2030 C2906.7195,1371.1305 2901.4788,1371.1807 2910.5554,1370.4254 C2933.5330,1368.5127 2922.0211,1373.1397 2936.4935,1382.5434 C2942.8310,1377.9251 2934.4648,1379.7086 2952.8923,1373.1872 C2955.3040,1372.3337 2972.7049,1370.6013 2976.0074,1370.6004 C2978.0016,1368.5432 2976.7807,1370.8899 2977.4187,1367.1933 C2977.0176,1355.6272 2973.2124,1344.3658 2971.8347,1334.5189 C2970.2054,1322.8681 2968.6967,1311.9939 2967.0179,1300.8386 C2958.8361,1302.4758 2960.0660,1304.2418 2951.5719,1301.0434 C2945.6652,1298.8190 2945.2788,1297.1896 2940.3345,1300.1130 C2933.0242,1304.4357 2927.9442,1311.2596 2919.7762,1314.7169 C2914.6962,1313.1705 2897.3139,1300.5627 2893.2988,1296.9687 C2884.6341,1289.2131 2886.9738,1272.5367 2890.8579,1265.7407 C2898.7928,1264.6078 2899.2882,1267.1103 2905.3875,1268.1127 C2904.3553,1262.3502 2905.0080,1256.6793 2903.7362,1250.8740 C2902.6373,1245.8589 2899.3498,1240.6351 2898.9147,1235.9819 C2897.3625,1219.3849 2908.7632,1218.5043 2912.7482,1210.0860 C2895.4907,1194.4884 2859.3267,1201.0263 2833.4149,1197.4323 C2822.9744,1195.9837 2807.3889,1191.1690 2796.6197,1188.5870 C2749.4190,1177.2710 2772.4859,1178.1852 2721.7569,1184.9633 C2700.9449,1187.7444 2703.5534,1187.3506 2689.4063,1177.0859 C2674.9319,1166.5837 2677.2457,1169.2675 2667.3717,1153.2171 C2661.5348,1143.7287 2656.8430,1134.6105 2649.3543,1126.8414 C2648.1645,1125.6072 2625.4160,1104.8796 2625.4126,1104.8779 C2619.6226,1102.2562 2511.2887,1112.0056 2502.4491,1113.6551 C2481.2373,1117.6119 2406.2185,1137.2205 2390.8333,1137.5881 L2310.9361,1127.7320 C2272.7215,1122.6637 2314.1753,1129.9914 2232.6751,1179.1348 C2224.4481,1184.0958 2213.6156,1193.1074 2203.4987,1195.7816 C2191.5957,1198.9281 2180.3212,1202.0449 2168.7550,1205.2263 C2149.3263,1210.5706 2151.6096,1212.7784 2132.3752,1205.6149 C2107.8958,1196.4980 2088.2039,1192.2932 2069.2620,1178.7035 C2025.7929,1147.5174 2033.6550,1150.6644 1982.7774,1130.8043 C1964.3034,1123.5932 1968.1836,1125.7023 1959.0881,1108.6518 C1952.0398,1095.4388 1917.2711,1026.7903 1912.1687,1020.6592 C1907.8456,1023.1373 1896.3915,1034.9462 1894.4189,1042.7044 C1889.4629,1062.1947 1891.1599,1055.0547 1880.2632,1066.8195 L1852.9776,1097.6986 C1849.6091,1101.4541 1848.7755,1104.0811 1842.0929,1104.7840 C1818.1232,1107.3066 1829.5950,1101.8960 1813.2943,1114.5130 C1806.8595,1119.4940 1798.8263,1126.6235 1791.3045,1130.8537 C1781.1363,1136.5717 1741.5892,1118.5056 1729.5445,1123.5334 C1727.0850,1129.9281 1727.0838,1140.2600 1726.9739,1148.5482 C1726.7865,1162.6549 1726.5530,1160.2536 1713.6863,1162.5069 L1714.4957,1185.5553 C1706.5113,1188.3822 1696.1367,1187.5064 1686.7026,1189.5676 C1681.8535,1199.9174 1687.5810,1201.3699 1679.3372,1212.8618 C1671.3170,1224.0425 1670.8853,1219.8931 1662.6265,1227.0283 C1666.1767,1238.6617 1682.8293,1258.0061 1684.0657,1267.0732 C1680.6723,1273.2252 1673.3482,1276.4835 1667.5751,1281.0253 C1641.3815,1301.6337 1568.5085,1352.6256 1552.5823,1376.3237 L1591.9372,1375.0170 C1598.3790,1382.9428 1595.9777,1387.3179 1609.0434,1389.5973 C1621.6073,1391.7890 1639.3180,1405.4827 1650.2849,1412.3271 C1660.8287,1418.9074 1666.6893,1416.6209 1673.7786,1420.7934 C1683.7340,1426.6529 1678.6553,1427.9513 1694.9775,1431.7191 C1714.6784,1436.2666 1704.2776,1439.7441 1714.0262,1444.7675 C1723.1415,1449.4647 1752.7164,1454.0319 1764.8861,1457.8975 C1772.4824,1460.3105 1789.9251,1481.9256 1797.3939,1489.6319 C1805.3702,1497.8620 1809.5459,1494.7793 1824.0760,1495.3722 C1843.6339,1496.1711 1937.7941,1496.8801 1945.9457,1500.8330 C1962.4729,1508.8479 1943.1847,1518.6939 1952.1419,1520.8664 L2107.5339,1514.2813 C2157.3914,1510.4952 2205.1207,1502.6981 2253.9399,1496.3182 C2302.6075,1489.9584 2351.7101,1483.5157 2400.2265,1476.8765 C2437.1354,1471.8251 2513.4341,1463.4605 2544.4005,1457.5582 Z"
     style="fill-rule:evenodd;fill:#00abc2;fill-opacity:1"
     id="path2" />
  <path
     d="  M1454.0314,745.5539 L1465.9284,743.3692 C1469.0095,750.2547 1472.0285,767.5131 1476.0044,772.3780 C1485.2851,771.6201 1477.3700,770.3452 1484.2736,768.4797 C1489.2696,767.1293 1488.7953,768.5888 1491.5968,772.1645 C1505.9278,790.4559 1490.5883,786.6881 1506.3384,805.0424 C1523.2658,824.7688 1514.6976,817.4446 1506.2018,835.9708 C1523.1094,842.1320 1513.6947,858.1225 1528.8938,883.7704 C1531.3804,887.9669 1534.0638,894.3612 1536.5784,899.1707 C1543.2838,911.9977 1565.8432,947.0816 1562.2796,964.8120 C1552.6792,966.8395 1553.0906,963.6266 1545.7463,962.0763 C1541.1018,969.3425 1541.7355,964.3684 1540.0903,974.4253 C1538.9556,981.3618 1537.5430,981.8678 1533.1962,986.1748 C1519.1948,1000.0483 1525.6550,990.5319 1523.0254,1011.4014 C1517.6477,1015.7865 1516.4630,1013.1407 1511.6183,1018.0275 C1508.4807,1029.0479 1523.1370,1040.7411 1525.7326,1049.9064 C1523.3313,1057.9864 1515.6238,1059.5144 1514.6696,1068.0332 C1533.4461,1067.8267 1519.2757,1067.9380 1535.0762,1097.8579 C1541.1432,1109.3464 1548.2488,1122.5855 1558.0625,1126.6388 C1564.1393,1121.7748 1563.9739,1118.2170 1570.2205,1115.9860 C1586.7215,1125.3011 1579.0270,1129.7207 1574.8400,1137.6972 C1579.9545,1148.1854 1586.7521,1150.5233 1598.1011,1157.2110 C1606.4914,1162.1545 1615.1376,1168.8627 1623.1104,1173.4325 C1632.1968,1178.6397 1645.8916,1178.6891 1647.9103,1190.1290 C1652.1929,1214.3978 1644.3971,1192.3155 1658.0544,1220.8519 C1682.6630,1216.2240 1678.1930,1188.4145 1681.0574,1185.4431 C1687.9084,1181.5614 1700.6593,1182.1124 1708.9647,1181.1401 C1704.6407,1157.8856 1707.2979,1158.2091 1714.5522,1156.0641 C1719.7175,1154.5365 1716.1117,1157.0351 1721.0439,1153.6148 C1721.7190,1144.2312 1719.2742,1126.5755 1725.8443,1119.8341 C1732.6768,1112.8229 1744.0560,1117.8821 1754.7334,1120.0350 C1790.2000,1127.1850 1781.9622,1130.8803 1806.2727,1112.0004 C1813.3098,1106.5356 1819.2454,1099.3878 1830.0176,1098.9817 C1848.3219,1098.2924 1845.5936,1098.3984 1854.6051,1087.0720 C1862.1532,1077.5849 1885.5095,1056.1077 1887.8039,1046.8699 C1889.5323,1039.9107 1887.9633,1038.3141 1892.2834,1032.8488 C1907.7707,1013.2564 1944.8359,978.8889 1945.0707,957.5755 C1945.3688,930.5008 1950.5402,929.3831 1976.4399,914.7447 C1988.3494,908.0134 1989.6741,908.5168 1997.6487,899.3493 C2006.7601,888.8750 2012.8142,885.5369 2013.9722,878.5030 C2005.4522,873.6791 1959.2647,861.8527 1945.3051,857.9147 C1926.1530,852.5123 1926.5510,853.6684 1906.0518,854.4600 C1882.6175,855.3650 1870.0157,832.7125 1840.1281,830.4401 C1826.5708,829.4093 1812.6455,828.6553 1799.4781,827.3320 C1786.6816,826.0463 1776.3355,819.3987 1765.4091,815.1546 C1751.2999,809.6746 1730.8950,824.7976 1728.1073,812.5382 C1726.9985,807.6615 1728.1534,814.6779 1727.6808,809.6929 C1727.6162,809.0136 1727.7054,804.3172 1727.7403,803.4296 C1728.5123,783.8411 1737.0120,789.6469 1741.8223,780.3074 C1744.3029,775.4913 1741.4768,765.3035 1740.9504,759.4405 C1740.1672,750.7166 1743.7893,747.5566 1747.5442,743.1841 C1743.6963,732.7108 1737.3235,731.2966 1736.4252,714.5408 C1735.8001,702.8720 1735.7321,689.4290 1735.5602,677.1757 C1735.2194,652.8432 1735.1634,662.9664 1727.2298,645.8639 C1725.1365,641.3513 1724.6799,634.5750 1722.3497,630.7531 C1719.9579,626.8312 1715.9475,626.5557 1712.5485,621.9824 C1711.0898,617.6999 1711.9045,608.7127 1714.7939,605.0121 C1720.8333,600.3852 1726.2036,605.5941 1735.3069,599.5897 C1741.5401,595.4783 1741.8874,592.0332 1746.8558,586.8670 C1756.3033,586.4558 1766.1893,590.9409 1775.1469,589.3534 C1786.0445,587.4224 1785.6563,581.2652 1788.3936,571.8449 C1793.9014,570.1042 1798.1125,568.5407 1804.8605,566.6651 C1812.6499,564.5005 1818.5255,564.1417 1819.5754,560.1255 C1819.5517,551.1448 1818.2890,517.7972 1820.3082,511.6465 C1827.8416,488.6972 1844.7773,502.4231 1847.5172,490.8168 C1841.4498,486.9552 1830.7388,492.8199 1823.8864,489.2765 C1818.8960,477.8047 1824.8622,471.1821 1829.5243,465.5518 C1842.8701,449.4355 1840.7682,461.8906 1849.4769,456.7436 C1839.6537,443.0229 1841.0194,463.9404 1837.9452,406.8344 C1830.6384,404.3764 1831.3035,406.6759 1828.5723,398.2855 C1815.0809,356.8379 1836.8945,378.6311 1829.4442,357.1906 C1821.9711,353.8568 1821.8750,359.2771 1818.9443,351.0020 L1813.1750,306.8780 L1840.3262,293.6707 L1840.0402,282.0247 C1835.6887,281.6239 1823.9455,283.1930 1823.0696,264.7571 L1832.3732,255.0696 L1824.0432,240.3103 C1823.7253,239.9361 1823.3359,238.8569 1823.2161,239.0896 C1820.3741,244.6111 1821.6807,206.2899 1821.6781,206.0589 C1809.7855,204.6134 1813.2297,204.6889 1807.3049,196.3116 C1770.0169,220.6633 1779.1409,188.1849 1749.1420,223.9971 C1743.4430,230.8005 1758.3870,268.5921 1722.1976,246.3186 C1717.0961,251.4141 1679.8490,257.7569 1670.9448,256.3772 C1640.7237,251.6948 1652.1847,265.1365 1641.7723,281.4628 C1626.0902,281.4253 1632.8439,277.6475 1623.4128,272.1591 C1612.4705,271.0820 1613.8658,276.5097 1602.6000,278.8756 C1594.8184,280.5097 1585.1129,280.0229 1576.0519,279.9609 C1557.4089,315.0261 1538.8621,278.4490 1520.1610,315.3151 L1508.7599,315.8967 C1498.1669,298.5300 1496.1241,301.1980 1479.6494,302.1043 C1467.9161,302.7501 1480.0229,329.1699 1455.7787,306.3895 C1445.8841,297.0923 1442.4372,312.8890 1431.9218,309.1714 C1426.1219,304.4152 1422.7001,291.6358 1412.7137,294.3405 C1402.8583,297.0093 1416.4875,301.2975 1403.0297,316.7751 C1405.3707,323.8548 1408.5056,329.8317 1404.4992,342.8386 C1401.8261,351.5163 1385.3988,363.5954 1407.5079,362.8593 C1411.0758,362.7406 1414.7604,362.4040 1418.3533,362.5943 C1425.6593,362.9811 1428.8614,365.2056 1434.3003,367.6090 C1435.8300,376.5429 1436.6507,381.8418 1435.5901,391.3516 C1406.0057,400.1345 1420.5737,394.4051 1406.2362,391.1949 C1406.0354,400.9365 1409.0230,406.9479 1417.0079,408.6017 C1430.7621,411.4505 1426.9263,412.4891 1433.6519,422.8131 C1444.3526,422.9991 1447.8098,420.8799 1453.9181,428.4495 C1471.6959,450.4798 1469.2494,435.6148 1482.9239,445.3490 C1491.1143,451.1793 1489.8253,463.6099 1489.7219,473.9361 C1485.1783,477.1048 1480.9827,481.3009 1472.8862,481.7890 C1461.1469,482.4963 1462.9266,477.9531 1454.7181,475.5515 C1449.7841,479.0577 1448.7765,483.9702 1441.1547,483.3987 C1434.4304,482.8945 1431.7314,477.8296 1429.1117,473.7025 C1421.5529,474.1050 1418.1220,477.4694 1412.3794,476.8032 C1402.9647,475.7108 1410.4197,471.4161 1396.5557,476.5181 C1393.1894,492.5667 1397.4797,488.2060 1385.9325,498.1376 C1378.7231,504.3376 1384.5130,502.0848 1380.5561,507.9639 C1376.8258,513.5064 1374.9126,509.8810 1368.0259,512.3023 C1369.2450,522.9525 1375.6558,517.0877 1378.9712,529.1459 C1387.1340,558.8345 1389.5474,532.5116 1393.2790,573.0263 C1394.4895,586.1702 1394.3883,588.7435 1387.7303,595.4377 C1372.9180,610.3320 1370.1058,607.4950 1362.3130,611.3693 C1357.8512,613.5876 1357.4419,615.3676 1352.9823,617.2594 C1341.5467,622.1108 1342.7258,619.2799 1334.5414,627.7755 C1325.2542,637.4154 1326.8848,632.2283 1314.7112,637.1351 C1316.9587,644.2978 1313.5541,637.8629 1319.8210,641.4940 C1367.9729,669.3939 1335.4595,687.2958 1357.0792,686.0402 C1373.2028,685.1037 1380.0835,694.0311 1403.5605,721.3249 C1453.2602,723.5629 1417.1419,714.5499 1439.4931,735.7564 C1446.6005,742.5000 1449.7350,736.2777 1454.0314,745.5539 Z"
     style="fill-rule:evenodd;fill:#00abc2;fill-opacity:1"
     id="path3" />
  <path
     d="  M2486.6417,699.9477 C2493.0843,698.2411 2493.5138,694.7104 2499.8423,695.8303 C2501.5030,696.1241 2509.7430,700.0551 2511.8100,701.8229 C2514.6558,707.3322 2499.4451,720.2221 2495.9431,723.5616 C2485.0973,733.9044 2484.2969,731.9817 2468.3452,731.2853 C2461.4261,740.6720 2458.0619,750.2582 2445.2193,751.8552 C2432.4810,753.4396 2422.1870,740.1620 2411.4471,748.7803 C2406.9143,752.4176 2404.0486,755.2109 2399.5652,758.3888 C2384.4626,769.0944 2395.1667,779.0801 2380.4648,785.2338 C2358.0115,794.6323 2357.6009,795.6705 2339.6339,811.5960 C2331.3548,818.9342 2321.5872,812.7726 2305.8053,823.5127 C2298.1896,828.6959 2304.4009,830.3576 2298.3503,837.5351 C2294.1129,842.5620 2290.5136,841.6255 2285.2190,847.3208 C2281.2264,851.6156 2277.8622,855.0856 2274.4538,859.4768 C2267.8000,868.0484 2265.5973,862.6722 2258.5546,866.4422 C2250.7153,873.5468 2257.6805,881.1574 2257.0623,892.7995 C2256.5815,901.8505 2247.1819,905.8763 2241.6526,912.5120 C2229.1391,927.5294 2219.3345,940.3302 2196.4555,937.3749 C2194.0185,928.4371 2195.4630,924.5903 2195.3294,915.4044 C2189.6398,913.6275 2191.2924,912.9840 2186.9805,911.4293 C2183.3467,910.1186 2179.1335,910.2147 2175.1253,909.7375 C2160.8024,908.0326 2165.3844,908.2138 2156.8516,916.1331 C2145.9450,917.7384 2138.0187,915.6502 2133.4371,907.2179 C2127.2267,895.7876 2127.3701,896.5852 2124.7000,882.3375 C2107.2785,883.1011 2106.7391,876.0926 2096.2771,863.3232 C2089.2089,854.6966 2082.7965,846.4957 2074.7844,838.0865 C2065.6278,840.1581 2050.5898,861.4092 2044.3845,868.1597 C2040.1485,872.7684 2034.2586,880.0703 2027.4597,882.1262 C2016.2838,885.5059 2018.0144,885.9027 2010.2466,895.1545 C2000.0612,907.2856 1989.5781,914.3470 1975.9854,922.0773 C1928.8252,948.8983 1972.7695,947.7129 1929.3891,999.5768 C1910.5761,1022.0686 1915.0865,1008.8360 1949.7996,1076.3524 L1971.0489,1118.0690 C1975.0222,1124.0747 2004.6009,1133.3802 2013.2932,1136.8349 C2043.8736,1148.9892 2064.1984,1174.0403 2088.5989,1183.8496 C2104.7699,1190.3504 2119.4331,1194.8398 2134.4749,1200.3470 C2153.9734,1207.4861 2158.8152,1202.1580 2180.8972,1195.9226 C2201.8164,1190.0155 2204.9165,1190.3002 2223.7920,1177.8128 C2236.0367,1169.7123 2247.7992,1161.7730 2260.6229,1153.5258 C2273.2027,1145.4353 2282.2724,1133.3147 2289.9630,1120.3650 C2310.6738,1119.4975 2357.1636,1127.7726 2379.2374,1130.7851 C2406.1909,1134.4638 2470.8886,1113.7062 2502.7425,1107.8489 C2527.8883,1103.2254 2586.7267,1100.7931 2616.8444,1098.4748 C2628.9495,1097.5427 2627.3999,1098.8119 2634.0303,1105.3629 C2641.9308,1113.1696 2652.4789,1120.5196 2659.0487,1129.3400 C2665.7847,1138.3831 2671.6896,1150.8591 2678.4239,1160.5295 C2681.9539,1165.5988 2701.9973,1180.0381 2707.1751,1180.6441 C2713.4394,1181.3767 2743.1867,1176.1809 2751.5843,1175.0064 C2770.2560,1172.3952 2812.2402,1188.3250 2833.3171,1191.5846 C2851.5718,1194.4080 2886.5559,1190.5735 2901.6141,1197.7899 C2905.5706,1199.6860 2914.9065,1204.8351 2918.1172,1204.2147 L2922.2490,1192.6647 C2923.2920,1187.8933 2924.3414,1186.9419 2927.9804,1184.4782 C2928.1769,1184.3455 2928.6611,1184.1377 2928.9583,1183.9028 C2928.6253,1183.6701 2928.0420,1183.0519 2927.8551,1183.3903 C2926.7556,1185.3789 2914.6786,1175.7609 2913.7019,1174.6602 C2907.3222,1167.4670 2908.2575,1169.1164 2908.6344,1158.1597 C2901.6262,1158.4095 2901.9932,1162.2515 2894.4133,1157.3708 C2875.7829,1145.3746 2881.8481,1139.7972 2890.4219,1123.6067 L2911.0947,1126.3581 C2915.0004,1116.9928 2922.1461,1115.3146 2922.5411,1103.9143 C2923.1985,1084.9240 2925.1268,1087.7574 2917.7640,1073.4028 C2911.2520,1060.7081 2919.8995,1057.1097 2907.3636,1048.6316 C2890.8505,1037.4632 2882.8523,1034.1390 2899.6307,1021.7769 C2909.7140,1014.3479 2921.6812,1017.3233 2924.2023,991.3575 C2921.3297,989.6985 2913.8618,984.3612 2911.0000,981.7958 C2905.3879,976.7654 2906.9461,973.4150 2905.0528,964.4754 C2903.1159,955.3292 2900.0917,953.7584 2896.0443,928.2310 C2898.2491,925.5372 2905.7308,920.0327 2909.1527,917.4778 C2915.2334,912.9381 2920.4987,912.8835 2929.3034,912.5762 C2933.7536,898.6494 2940.1803,908.7097 2945.4972,891.2667 C2937.8574,886.8239 2934.6832,890.1027 2930.1374,882.1476 C2924.2225,871.7974 2931.5759,874.2899 2933.5589,865.0835 C2930.6217,859.6519 2928.5245,859.4663 2925.1901,854.9551 C2921.9548,850.5787 2922.1534,847.5204 2918.9676,842.9152 C2903.6186,841.2439 2903.9215,842.9104 2893.4086,834.8448 C2885.3695,828.6771 2882.7554,823.9039 2869.5888,824.1130 C2850.9200,824.4095 2856.9444,844.3660 2851.7881,856.2522 C2850.1817,859.9562 2849.0538,866.7268 2846.9476,869.8257 C2835.5990,876.8967 2826.3054,870.5042 2818.3325,871.8022 C2814.0573,874.2637 2815.8938,883.4508 2811.5828,886.6842 C2804.4353,890.2040 2784.0830,874.2047 2778.1935,873.9847 C2772.4436,873.7699 2771.1439,881.8691 2762.8152,879.5084 C2757.2846,877.9402 2761.6861,876.8435 2752.7582,877.2657 C2742.0205,877.7739 2727.2014,877.5049 2717.0620,880.0070 C2702.3618,883.6355 2708.3306,880.6309 2700.0786,888.8344 C2695.6305,893.2562 2671.9020,903.0297 2664.4548,903.3131 C2660.4311,899.8020 2654.5145,894.8436 2651.7492,889.7264 C2655.3041,866.3029 2667.2080,868.1418 2672.4306,857.1266 C2658.0272,850.8489 2661.2940,851.4392 2652.3432,841.9220 C2642.6205,831.5840 2640.3174,846.4909 2621.9205,820.3208 C2619.5576,816.9591 2615.5554,814.5652 2612.0599,811.9370 C2599.9940,802.8642 2601.5970,804.8166 2583.9527,803.4645 C2561.9302,801.7767 2540.4862,803.8413 2540.9321,775.7878 C2541.4310,744.4122 2550.6225,767.4183 2552.6800,751.2562 C2553.8479,742.0800 2549.3784,741.1335 2548.4560,736.5431 C2547.6276,732.4213 2551.6026,729.0561 2553.9634,724.9259 L2546.2801,707.7723 C2524.8520,706.6843 2528.9705,697.2247 2514.4878,692.3017 C2508.9486,690.4187 2498.9902,690.7981 2492.6626,690.6619 C2477.9176,690.3445 2483.8979,690.2755 2474.4569,685.0683 C2477.6974,690.4554 2481.5957,695.8303 2486.6417,699.9477 Z"
     style="fill-rule:evenodd;fill:#00abc2;fill-opacity:1"
     id="path4" />
  <path
     d="  M1189.5140,1552.7296 C1189.0975,1558.1678 1187.3049,1553.5155 1192.1027,1557.7560 L1348.4154,1672.0575 C1356.5971,1680.2003 1358.8769,1680.5142 1368.5893,1687.0404 C1376.2481,1692.1864 1385.7469,1709.2178 1391.8927,1717.4091 L1471.2828,1827.4861 C1487.6907,1827.4830 1511.4998,1822.2662 1529.1010,1819.7973 C1614.6956,1807.7928 1612.8142,1814.0094 1698.4519,1827.1220 C1725.2279,1831.2220 1753.5720,1794.0621 1768.6155,1820.7718 C1770.9009,1824.8294 1777.4754,1839.4521 1779.9482,1841.5879 C1787.9064,1848.4607 1793.4297,1844.4899 1799.5307,1855.6736 L1836.3745,1915.2027 C1841.4437,1914.5377 1842.2506,1913.4017 1846.4918,1911.9020 C1850.7512,1910.3958 1854.7628,1909.3170 1857.5402,1912.5705 C1861.3627,1917.0486 1861.3790,1960.4989 1860.9599,1969.5171 C1860.6118,1976.9972 1856.6893,1980.8418 1857.1520,1981.7298 L1952.1850,1911.3524 C1968.5403,1900.0037 1984.8134,1889.6216 1996.6587,1873.1547 C2002.5693,1864.9376 1995.0053,1865.4550 1996.0676,1857.1694 C1996.5587,1853.3366 2002.1411,1849.0261 2004.7694,1846.0874 C2018.1552,1831.1181 2013.2803,1837.4333 2014.0979,1813.4336 C2019.7272,1808.6957 2023.6057,1806.6367 2028.7004,1802.8415 L2028.8675,1787.1508 L2037.9342,1783.0373 C2036.8757,1773.9658 2032.2795,1773.5205 2026.2646,1769.0669 C1997.1119,1747.4814 2016.4704,1750.7654 2000.7177,1744.2371 C1992.9439,1741.0151 1989.5634,1740.8723 1984.1538,1736.2536 L1981.7866,1635.1792 C1976.6855,1629.6113 1958.3928,1618.1792 1951.9881,1613.4933 C1950.7935,1600.0136 1959.5387,1590.5029 1957.4718,1578.5600 C1954.3213,1560.3573 1962.3433,1561.2173 1964.0092,1545.4599 C1957.7108,1541.2530 1955.0980,1535.5035 1949.5144,1529.5702 C1936.1023,1515.3199 1944.3754,1521.2314 1945.9091,1508.5519 C1937.7562,1502.6313 1933.0152,1504.4724 1919.7681,1504.2655 L1831.6318,1501.5643 C1790.4132,1500.4148 1804.2316,1503.4364 1786.0401,1485.7654 C1761.9093,1462.3249 1775.6815,1466.7843 1751.2853,1460.8951 C1741.2881,1458.4816 1710.8421,1452.5597 1705.9133,1445.2818 C1699.1312,1435.2664 1698.0594,1439.3206 1685.3236,1435.3135 C1675.3976,1432.1902 1675.6233,1426.7835 1665.6416,1424.4743 C1648.7090,1420.5572 1638.9294,1411.8896 1625.5448,1403.5403 C1615.8579,1397.4970 1617.2213,1396.9735 1603.9884,1394.6356 C1593.0715,1392.7072 1595.1217,1387.9335 1588.4425,1380.5067 L1542.8647,1382.2513 C1539.4454,1378.9686 1533.6033,1370.5446 1531.1189,1366.6834 C1525.9557,1358.6597 1530.0742,1351.5346 1526.8527,1343.3690 C1525.7485,1340.5705 1517.6456,1330.8267 1515.0909,1327.5597 C1507.5170,1317.8726 1511.4946,1318.9772 1497.3053,1317.5827 C1488.9258,1306.8876 1481.0693,1286.1159 1472.8677,1273.5902 L1422.8031,1272.2743 C1414.4933,1285.6322 1382.6744,1379.4964 1371.0169,1400.8928 C1359.5735,1402.1323 1347.1897,1394.3405 1333.1758,1394.3645 C1302.4739,1394.4177 1310.9232,1391.0909 1279.2068,1426.4914 C1255.8492,1452.5628 1256.0344,1457.5438 1241.0563,1475.6104 C1236.9039,1480.6198 1234.6689,1480.3447 1230.4500,1486.4343 C1227.2600,1491.0390 1225.1146,1494.6422 1221.9826,1499.4167 C1215.9540,1508.6083 1191.9550,1544.7129 1189.5140,1552.7296 Z"
     style="fill-rule:evenodd;fill:#00abc2;fill-opacity:1"
     id="path5" />
  <path
     d="  M194.5066,1068.3964 C226.2243,1064.8465 242.8903,1061.4621 274.4986,1067.6433 C287.5544,1070.1960 299.6789,1072.0773 312.7106,1075.1976 C333.6656,1080.2145 328.2147,1061.2228 343.7993,1066.5042 C357.0413,1070.9919 363.7049,1078.4974 379.4826,1075.3055 C398.6644,1071.4246 395.6458,1070.4196 405.8554,1057.3974 C416.0485,1044.3966 417.4934,1046.4652 435.3622,1041.1179 C446.1675,1037.8840 459.0959,1033.1684 469.7849,1030.9252 C476.2353,1002.3989 478.4108,1008.0505 507.9091,1007.7541 C523.8991,1007.5939 527.1792,1009.2014 544.5719,1026.5947 C564.2888,1046.3124 553.9500,1042.9450 578.6104,1046.2054 C587.4319,1047.3716 591.5672,1050.1967 598.6086,1053.5375 C609.1188,1058.5238 625.8679,1065.9869 641.1592,1063.3660 C641.7860,1052.3234 622.5775,1051.4663 637.5603,1036.5642 C642.6993,1031.4531 644.5811,1031.3679 643.9396,1020.7160 C643.4670,1012.8762 642.2716,1007.2572 643.4894,999.2720 C670.6734,982.5777 673.3319,996.5049 709.8198,997.0865 C718.4617,985.2208 711.9437,993.5003 713.4524,980.8964 C727.0437,974.1642 722.7202,977.6023 728.2013,962.0689 C733.7401,946.3726 725.2533,951.6759 723.9811,939.0126 C729.2408,933.7774 730.9119,936.9933 735.5598,930.9994 C748.0987,914.8290 741.2489,918.1252 773.9256,932.7327 C786.9263,938.5441 782.1931,936.0071 803.0072,927.3067 C800.4203,914.0226 796.6206,912.2933 802.4502,898.7219 C805.1070,892.5371 810.9594,880.5440 811.8111,874.3244 C802.7832,866.5221 804.5107,870.9089 802.4257,856.0033 C799.1318,832.4567 795.7043,831.4194 803.5470,813.6309 C808.2423,802.9816 807.1218,803.4405 806.9094,791.1116 L800.0351,787.7420 C798.0560,775.5455 803.1593,755.7732 802.0177,751.7164 C799.8826,744.1276 785.5900,737.9542 781.9721,732.0637 C776.6969,723.4751 787.3343,717.6253 774.8617,702.3355 C769.1420,695.3238 759.8681,688.7772 749.5772,686.3672 C731.1833,682.0598 740.2365,677.1477 731.0488,665.1314 C727.1484,660.0295 729.6319,666.6067 728.2232,658.6241 C725.5768,643.6285 728.9832,656.2285 721.9516,643.4465 C720.2172,640.2938 720.0453,639.0631 718.3475,636.3759 C713.6268,628.9032 715.4913,632.1379 699.6417,626.3771 C695.8141,624.9857 680.1639,626.8486 676.3285,627.0743 C670.0522,627.4437 667.0314,622.7154 664.6017,618.8477 C655.3011,619.2127 634.7076,630.9417 628.6949,611.7243 C626.3621,604.2678 626.3212,587.6913 612.7660,574.6447 C604.2878,576.1309 604.7100,578.3959 593.5053,576.6273 C583.5392,575.0538 582.4135,576.2618 576.5339,580.3719 L576.5624,596.0752 C550.0496,616.6682 536.9261,595.2971 536.9136,595.2889 C532.3010,592.1991 524.9649,594.1847 519.4007,591.7791 C516.6397,580.5347 518.4646,576.3059 520.7344,567.1563 C511.5963,559.0886 503.9181,559.4457 489.1942,558.1822 C487.6110,562.0054 487.2207,564.2866 485.3566,568.0002 C474.2278,568.0998 476.5321,565.9967 468.4977,564.9293 C465.3214,568.8271 466.1214,566.5075 464.0893,571.2192 C459.0386,582.9299 462.4423,576.5177 453.5644,582.0715 C449.5282,584.5963 451.1209,584.7714 447.4789,588.2820 C425.6153,609.3567 445.2564,597.4941 419.7836,606.4730 C412.8735,608.9087 411.3567,609.3693 402.9474,610.7712 C392.4411,612.5228 397.2738,615.2209 390.6864,621.5070 C381.4781,630.2942 366.0528,619.5419 353.2593,626.6980 C354.2402,633.5699 361.1641,642.1398 353.2434,651.3444 C350.2532,654.8192 335.9963,658.1085 330.2244,661.9972 C323.3432,666.6329 316.2221,676.0444 311.6151,677.2940 C301.3392,680.0803 292.3652,672.6744 285.3703,670.3299 C290.9306,690.4973 276.8102,701.8334 290.3968,731.4080 C293.8260,738.8728 296.9222,752.2084 296.0136,761.5842 C294.2964,779.3036 276.7202,774.1824 262.9699,784.7841 C250.1747,794.6493 245.9434,783.9690 235.7700,775.8864 C234.5737,774.9364 232.1431,773.4092 230.5909,771.7882 C226.2657,767.2708 219.8726,753.7780 218.6302,746.9728 C216.9203,737.6097 215.9411,740.1367 213.2120,733.9904 C211.0351,729.0879 211.3410,724.4431 208.6752,718.4382 C203.4160,706.5935 191.2540,679.2211 175.0749,678.3592 C146.0820,676.8146 157.4504,710.8555 154.6623,727.4114 C151.5605,745.8307 118.9954,744.5223 108.7208,756.2626 C100.2874,765.8994 103.0652,771.7847 102.3027,786.5912 C101.5471,801.2641 92.9177,800.5420 90.1503,812.7167 C94.0124,823.6175 110.1261,831.9345 114.3841,845.0196 C122.1174,868.7832 109.8534,872.1597 93.5527,878.0913 C82.4876,882.1175 84.2005,881.3910 82.2429,894.1255 C75.6491,937.0226 54.8638,918.4352 56.6529,955.8344 C68.4112,963.4293 101.8138,968.8212 106.0003,982.7676 C110.6340,998.2037 102.4966,1000.4849 117.4755,1009.6812 C121.3708,1012.0728 125.8869,1014.7596 123.1815,1023.3364 C120.8939,1030.5904 115.6007,1026.9758 110.8128,1027.9101 C113.7099,1039.0340 119.7980,1031.0147 115.5847,1046.5730 C113.7668,1053.2856 119.2763,1058.6718 123.3999,1062.3252 C129.7055,1058.8678 127.5476,1051.9824 140.4183,1057.2237 C146.8023,1059.8235 159.2925,1075.1173 172.9528,1072.3362 C178.8944,1071.1264 175.1292,1070.4205 182.6634,1070.0419 C189.7273,1069.6874 186.9232,1071.7119 194.5066,1068.3964 Z"
     style="fill-rule:evenodd;fill:#00abc2;fill-opacity:1"
     id="path6" />
  <path
     d="  M2478.0903,333.5414 C2483.4391,345.6027 2486.2682,338.4456 2481.1955,352.9409 C2476.8785,365.2780 2481.2563,363.8888 2470.0654,370.5468 L2473.8810,380.4888 C2484.3197,379.7916 2485.6720,375.4528 2494.3854,375.5305 C2494.5904,375.6095 2526.5826,397.1417 2494.2802,400.0026 C2487.0820,400.6401 2482.7839,404.9069 2477.5871,409.1867 C2477.8189,409.4605 2478.2661,409.4413 2478.3897,409.9001 C2478.6878,411.0121 2482.2036,411.4723 2484.0061,414.9340 C2485.8895,418.5512 2484.1293,418.9406 2484.1069,423.9863 C2513.4440,439.5760 2492.4821,424.4639 2526.6317,427.5545 C2529.7769,432.9529 2536.7249,447.9210 2536.9761,455.9215 L2526.9393,460.6279 L2527.0396,479.6916 C2533.7416,485.1023 2537.8200,482.1269 2540.4815,487.4966 C2542.7048,495.2198 2547.1279,592.2052 2545.0635,597.5831 C2540.8692,603.3383 2536.8210,601.0414 2534.1022,608.1626 C2532.8946,611.3261 2531.2025,622.0448 2531.1262,625.7039 L2550.7298,626.0470 C2555.5306,632.4069 2555.9029,638.3707 2565.3818,640.4497 C2574.1977,642.3834 2579.8369,647.8482 2579.0696,656.9153 L2530.3814,665.6610 L2533.8695,684.2921 L2524.4833,690.5637 C2536.5862,705.3383 2546.6325,700.2922 2549.8307,702.4769 C2553.6588,707.6212 2555.6121,712.3705 2558.5643,718.4308 C2563.1597,727.8629 2558.4554,727.5979 2555.1369,735.7071 C2560.1523,749.6627 2560.1243,745.7692 2556.3634,763.4305 C2551.9093,766.3849 2553.5796,765.1620 2547.7612,764.8866 C2549.0436,777.2787 2544.5349,780.9059 2551.1068,788.9737 C2558.2744,797.7723 2578.5875,796.1748 2597.7483,798.0250 C2607.6894,798.9851 2611.1656,802.4398 2617.6444,807.7553 C2625.9132,814.5395 2624.7604,812.5307 2630.8135,822.1885 C2636.5324,831.3133 2638.8669,828.4444 2649.3207,832.6999 C2660.7921,837.3692 2654.5632,838.7414 2664.0317,845.4575 C2670.4037,849.9771 2678.0913,851.5728 2680.9949,857.3825 C2675.8490,870.7923 2665.5404,864.1221 2658.5170,888.1861 C2665.4633,898.5285 2667.8206,898.4944 2690.8607,887.1025 C2699.8507,882.6571 2694.1326,875.3006 2726.7826,871.8022 C2734.3178,870.9945 2745.0684,870.6238 2752.6875,870.6719 C2766.8850,870.7622 2761.6094,876.7387 2771.0297,869.9462 C2778.9328,864.2479 2780.8761,867.8803 2788.6323,871.6795 C2794.2715,874.4418 2802.3175,878.2550 2807.3131,879.9891 C2813.1832,872.2536 2807.5888,869.7930 2819.4711,864.3884 C2829.9590,865.0975 2826.8814,869.6860 2840.7014,865.4900 C2846.7357,860.2884 2847.2690,844.7437 2848.5735,835.8879 C2849.4256,830.1039 2851.8506,827.3329 2854.6391,823.7528 C2859.1927,817.9060 2861.3286,818.2619 2869.5759,818.1117 C2895.5506,817.6384 2891.5002,832.5768 2907.7677,835.5181 C2925.3521,838.6978 2922.1090,834.0402 2928.5697,848.5254 C2930.9146,853.7824 2931.8038,853.5514 2935.2592,857.0948 C2946.0292,868.1379 2935.1739,869.4206 2935.1489,879.1478 L2998.1816,905.6427 C3011.0776,911.0892 3018.0398,917.8969 3029.8963,910.4465 C3037.5662,905.6270 3037.2888,906.1212 3037.7274,895.9142 C3038.4623,878.8064 3042.1685,888.1560 3043.8581,878.6951 C3046.2434,865.3380 3036.1020,856.0308 3033.6485,844.8209 C3031.8668,836.6798 3035.0917,831.0775 3031.4825,824.2191 C3026.9427,815.5930 3023.8870,821.3280 3016.3739,816.4758 C3003.6140,808.2347 2976.0935,785.2941 2974.4160,768.0514 C2978.2213,763.5353 2988.1999,754.6551 2993.0697,751.7841 C3003.6088,753.3392 2996.8448,758.8249 3010.2561,750.3992 C3018.2310,745.3889 3019.5424,744.4515 3030.9677,743.0710 C3030.1448,736.2969 3027.0672,726.9836 3032.2114,720.2535 C3037.7597,712.9948 3047.1188,716.7364 3054.0004,717.5187 L3060.2587,708.8734 L3057.2254,700.5463 C3062.9465,696.4747 3062.7690,698.8043 3067.5896,696.0311 C3070.7246,694.2275 3071.5168,691.8468 3075.7770,689.4857 C3076.5046,688.7606 3076.9587,687.1443 3077.7255,686.5038 C3071.9153,682.5405 2987.5042,540.9692 2976.3559,522.7228 L2942.8392,467.4208 C2924.7722,438.6360 2932.7899,444.0851 2903.9249,417.5549 C2899.6591,413.6343 2896.5375,411.8766 2892.3967,407.6347 L2788.9041,310.8322 C2779.8556,302.5798 2772.7215,296.9255 2781.4039,279.7147 C2797.8949,278.0098 2790.6635,288.7303 2805.5429,273.3972 C2808.7649,270.0774 2809.3275,270.7218 2812.7382,268.3446 C2804.6210,256.2497 2806.5027,267.5063 2806.9159,249.6297 C2792.1825,252.7330 2782.0091,275.2458 2754.6796,249.5127 C2750.2656,255.1347 2749.2316,259.9883 2740.8689,261.8494 C2719.0704,266.7008 2724.3016,263.7827 2701.0802,273.9063 C2688.7886,279.2646 2685.3913,273.9102 2679.2252,276.2652 C2675.1309,280.5953 2678.4795,282.7285 2672.6938,289.7200 C2663.6065,300.7011 2651.3166,313.2439 2636.3067,311.4242 C2614.9161,308.8309 2618.9958,303.8791 2606.7180,313.8080 C2596.7260,321.8888 2590.2127,309.2422 2579.8317,321.6234 C2581.5795,328.5704 2587.5056,346.9762 2578.4174,352.9317 C2567.6331,356.2594 2564.2608,338.5714 2551.1296,334.7272 C2541.4443,331.8920 2542.1254,335.8034 2535.3778,327.4755 C2517.9235,305.9315 2522.9384,322.2739 2507.9267,323.0166 C2500.7957,323.3693 2497.2110,321.8042 2493.3859,318.9964 C2486.5288,326.4482 2489.3334,325.2532 2479.0277,328.7411 L2478.0903,333.5414 Z"
     style="fill-rule:evenodd;fill:#00abc2;fill-opacity:1"
     id="path7" />
  <path
     d="  M1830.6354,237.7313 L1840.1001,256.3807 C1836.9238,262.7392 1834.2468,263.2640 1830.2054,267.4906 C1834.0477,278.7739 1834.6810,273.2305 1845.5699,276.5106 C1851.0721,300.8391 1842.8051,301.7105 1819.4509,310.5480 L1824.9255,348.6854 C1833.6454,349.9786 1833.5437,349.6459 1836.5490,358.2489 C1839.9799,368.0748 1837.0715,367.6766 1832.6468,373.3510 C1826.3911,381.3825 1835.1252,397.2857 1835.3703,397.5809 C1838.6991,401.6294 1840.5300,399.0055 1842.8602,402.6231 C1847.4935,413.8639 1843.0497,431.9091 1846.6702,444.1013 C1849.5647,451.5189 1852.8565,445.3054 1857.4618,455.3937 C1856.3335,457.9665 1852.9724,462.3664 1850.6327,463.9923 C1841.6535,470.2338 1843.0915,458.1678 1831.9484,472.6844 C1829.0914,476.4046 1828.6382,477.4170 1829.2809,483.9349 C1841.7324,483.5786 1859.9264,478.3120 1853.4208,495.8599 C1848.9819,507.8368 1835.7722,496.3052 1827.6624,511.3745 C1824.0700,518.0517 1825.0410,553.7805 1826.1736,564.1128 C1834.9632,567.8802 1836.8126,565.6309 1841.4454,573.3528 C1844.8160,578.9713 1846.6379,584.1584 1850.1748,588.7221 C1857.0594,585.3905 1861.6138,577.0874 1871.1337,577.3922 C1873.4363,579.4398 1878.5546,588.1598 1880.2701,590.5964 L1899.0513,589.2093 L1904.1881,597.6953 C1920.8933,596.2616 1922.6454,588.7880 1934.9676,598.2625 C1939.2954,591.6276 1940.9411,576.8953 1945.2366,569.3890 C1956.9251,570.7150 1954.5440,577.5375 1962.7741,579.4773 C1977.6621,582.9871 1971.2906,575.2367 1982.0778,587.1430 C1985.3976,584.7208 2017.6378,528.1448 2035.4756,515.6479 C2040.5944,512.0635 2057.4658,501.7971 2062.6255,500.6021 C2066.8194,505.9250 2065.7652,514.8232 2065.9500,521.7628 C2093.2619,541.6023 2091.3108,524.3495 2106.6982,523.1546 C2112.9538,530.4596 2111.4232,547.4456 2113.2175,558.3023 C2118.8722,555.6923 2120.2637,553.0872 2124.9706,551.0627 C2138.8506,559.6518 2126.2096,559.5487 2146.9836,561.1746 L2146.9789,544.2637 C2166.8931,538.0882 2168.5435,541.4289 2175.0908,548.3074 L2178.9469,545.5944 C2181.3417,543.8001 2180.2320,544.3995 2182.3726,542.9330 C2181.1289,538.8657 2178.3688,535.3983 2176.7645,530.8626 C2178.9654,527.6812 2193.6174,509.9220 2197.8849,507.8884 C2202.6056,509.7718 2208.5658,519.8370 2209.6105,524.9961 C2211.9411,536.5230 2208.0803,540.9884 2218.3540,545.3648 C2234.2269,552.1311 2222.9313,555.8796 2233.9309,558.9257 C2238.9519,560.3123 2242.2255,558.4380 2246.3405,561.8400 L2250.4836,568.5875 C2251.9030,570.8132 2251.2646,570.0448 2252.5962,571.3428 C2266.7308,561.3436 2260.5212,550.0555 2268.8994,535.1220 C2270.9427,531.4764 2290.9724,508.9894 2293.6309,507.3824 C2299.3734,508.3616 2315.1726,518.4172 2320.7532,521.8191 C2342.0266,534.7941 2341.1017,524.9350 2371.1832,498.5685 C2378.4422,492.2052 2386.7877,487.0320 2391.2770,475.8518 C2393.4595,470.4211 2401.1532,449.0823 2404.5009,446.0598 C2410.3081,440.8260 2426.9947,433.8768 2434.2723,437.4708 C2438.7616,439.6873 2443.6861,443.8293 2448.0876,444.8932 C2463.8080,448.6981 2453.6777,438.7269 2477.2304,458.7537 C2481.8310,462.6659 2483.0699,465.7072 2485.4510,472.0094 C2492.7147,473.0734 2496.9271,472.5813 2504.0241,474.6054 C2509.7253,476.2312 2515.3520,478.4242 2520.7107,479.1459 C2522.9302,456.1437 2514.8760,458.2429 2530.2495,452.0062 L2522.6343,433.1411 C2502.5077,431.3935 2506.4008,445.8865 2482.1915,430.6390 C2475.0713,426.1548 2477.6048,425.2458 2477.3045,417.4112 C2471.7330,415.8509 2469.8047,416.1556 2466.8132,412.2660 C2468.0617,405.5093 2475.3625,403.0963 2480.0599,399.4320 C2492.2064,389.9432 2489.1869,396.5313 2500.6027,392.6378 C2501.7908,388.3736 2493.4639,382.3382 2490.2087,382.5679 C2483.6989,383.0223 2482.9592,387.9052 2469.6983,386.1667 C2455.6335,356.0420 2469.8512,374.9441 2474.1373,355.2360 C2476.0005,346.6845 2479.3155,343.8777 2472.5282,338.3112 L2465.8056,331.5728 C2463.2441,328.4897 2463.8588,327.2196 2460.9923,324.2818 C2460.6407,323.9212 2425.2931,296.0925 2460.3771,276.2905 C2467.8536,244.1929 2479.7226,277.4431 2487.8923,268.7602 C2490.6895,263.7652 2492.4050,245.4206 2490.4401,242.0562 C2467.6688,254.1266 2470.4570,269.9927 2418.6583,239.3245 C2403.9413,230.6088 2413.3827,214.4384 2374.0958,210.4183 C2374.0958,210.4323 2393.3625,239.1559 2351.5464,236.4242 C2346.0029,236.0583 2347.2328,236.2133 2342.9696,234.4373 C2333.1443,230.3464 2332.6080,244.0994 2328.4378,247.3184 C2301.5653,268.0621 2334.7719,287.7563 2279.9542,259.8106 C2269.8933,267.1064 2278.4331,270.2363 2259.8048,269.4631 C2256.9887,265.0588 2247.6351,252.5335 2246.5809,245.7581 C2242.2673,218.0748 2258.7920,230.5342 2260.6552,226.5791 C2262.5374,222.5681 2253.6138,205.5263 2252.0646,200.2030 C2245.9800,179.2859 2254.2333,179.3890 2255.2086,171.9949 C2249.9886,166.6296 2245.7534,166.2830 2243.2569,158.3174 C2240.3300,148.9831 2243.5339,144.8691 2236.8715,137.1096 C2227.0045,125.6295 2231.7855,114.7820 2231.1057,87.5296 C2218.5112,80.0185 2219.1721,85.9177 2213.4898,70.5532 C2207.0166,72.9475 2210.4014,73.6927 2203.7710,74.9388 C2190.5613,77.4225 2191.4307,73.1020 2179.6681,96.5495 C2149.9381,97.5336 2150.1276,78.6175 2127.4766,67.7368 L2102.7447,66.7531 C2100.6273,67.2264 2098.6805,68.9789 2095.4211,69.6442 C2080.4314,72.6991 2079.1691,58.3514 2068.7058,56.9225 C2066.2412,65.1880 2071.8774,68.1633 2062.7367,69.5176 C2057.3409,70.3188 2051.9821,65.9799 2048.1721,64.9583 C2043.8814,69.7564 2045.8187,70.7169 2044.1683,77.6989 C2042.5222,84.6852 2040.8623,82.2957 2038.8927,89.3244 C2036.5853,97.5615 2039.4937,97.1167 2030.8337,98.4146 C2025.1975,99.2581 2021.2626,98.2365 2016.9813,99.5908 C2014.8312,104.3514 2014.5171,110.6396 2012.4131,116.3799 C2010.2354,122.3214 2011.2482,128.9799 2011.0586,136.6363 C2002.5232,142.3670 2000.6277,143.6694 1986.5857,144.5225 C1968.1884,145.6327 1969.2796,166.0442 1943.3087,163.3639 C1939.4294,162.9653 1901.5387,174.8812 1898.2883,177.9177 C1884.6164,190.7049 1889.8550,182.5425 1876.1228,184.8481 C1869.1179,186.0243 1860.5829,193.9850 1854.2161,195.0158 C1830.2425,198.9006 1855.3767,188.6997 1829.3180,202.5038 C1830.3351,213.7215 1827.5517,227.2353 1830.6354,237.7313 Z"
     style="fill-rule:evenodd;fill:#00abc2;fill-opacity:1"
     id="path8" />
  <path
     d="  M2295.1507,514.7620 C2289.7218,518.7075 2287.3618,523.1485 2282.3783,528.6548 C2277.3604,534.1990 2274.6011,536.4741 2271.9603,545.7914 C2270.5559,550.7466 2268.0374,562.4464 2265.4862,566.9629 C2263.2503,570.9210 2255.5545,578.5609 2251.0776,580.0794 C2242.4280,574.5347 2248.1783,567.8963 2236.8815,565.5785 C2217.4041,561.5824 2229.4342,560.5817 2219.6352,553.3976 C2213.7879,549.1107 2207.5357,551.0265 2204.6425,539.3163 C2201.7682,527.6829 2206.9007,525.1891 2197.8854,517.3012 L2183.6043,532.0580 C2186.4937,537.8882 2187.6370,536.0790 2189.9160,541.6433 C2188.3358,545.2251 2179.4255,556.6389 2175.0891,558.1682 C2169.9613,554.7205 2170.9668,552.7654 2165.9703,547.7468 L2152.9800,549.3068 C2152.5914,561.8421 2157.5689,571.3057 2135.7053,567.6383 C2128.1404,566.3696 2129.7973,563.6771 2124.9366,559.8321 C2118.5146,563.1301 2117.7827,566.1709 2109.7388,566.3984 C2104.5683,558.6179 2104.5575,541.7800 2102.9911,531.3769 C2090.1998,533.5673 2090.1494,542.2982 2075.6366,533.0992 C2062.5682,524.8163 2060.6068,528.4980 2059.0326,509.6910 C2051.0034,512.0412 2039.6561,519.7435 2035.7952,525.2232 C2022.0083,544.7898 2013.4595,548.7977 2000.0775,572.1636 C1994.2475,582.3435 1989.7082,593.9424 1983.5981,597.3434 C1974.8516,593.5739 1977.7582,587.7773 1968.3223,586.4920 C1955.5698,584.7548 1958.3204,585.6852 1950.1632,578.5618 C1943.6594,584.8351 1943.9300,598.9191 1938.2675,607.6989 C1930.6031,606.5367 1932.3306,604.0704 1925.8467,599.7355 C1919.3958,600.7445 1914.0225,602.6725 1907.8439,603.7172 C1900.1339,605.0213 1899.6988,601.8381 1895.4515,596.3227 C1889.9006,596.0284 1882.8523,598.3293 1878.1212,596.2633 C1874.3823,594.6305 1871.7954,588.4344 1868.0956,585.0159 C1860.0935,588.1231 1856.8259,594.7876 1848.3387,595.9896 C1839.0403,588.9823 1841.4562,575.9636 1828.1479,571.4777 C1817.5015,567.8889 1802.5842,572.4631 1793.6270,577.2119 C1789.2927,589.1993 1791.8478,590.4231 1779.1133,594.8326 C1769.7305,598.0817 1759.3236,593.1068 1749.5535,593.2862 C1744.0142,599.6801 1745.2523,600.7851 1737.8365,605.3160 C1729.5475,610.3805 1727.5654,607.5601 1718.7068,610.3949 L1718.0128,618.6377 C1722.8438,623.1158 1725.7336,623.3149 1728.1784,628.1392 C1730.3682,632.4610 1730.5883,638.2467 1732.8474,643.3443 C1735.1893,648.6279 1738.9898,651.8107 1740.3007,656.0085 C1742.1066,661.7907 1742.1463,704.9580 1742.5766,713.5388 C1743.4736,731.4137 1750.5228,728.5557 1754.5391,741.8678 C1752.3196,748.1870 1748.3791,750.2612 1747.3357,754.8459 C1746.3724,759.0804 1748.1753,767.5415 1748.6708,772.1510 C1750.2432,786.7855 1742.1928,789.7495 1734.5737,795.7216 L1734.4336,810.5678 C1753.2614,808.2430 1756.0573,804.2329 1773.2841,811.6558 C1809.8221,827.3997 1809.3848,819.0403 1851.2375,825.1818 C1859.4223,826.3829 1875.0285,835.8599 1882.3491,839.7674 C1899.7724,849.0672 1897.1092,848.4542 1919.7737,847.5147 C1934.5712,846.9013 1944.7295,851.4261 1958.3782,855.1323 C1971.2371,858.6242 2021.3970,874.2724 2030.4119,873.8533 L2050.5265,851.2672 C2075.8808,821.3180 2074.2291,827.2862 2096.5722,853.7501 C2100.3533,858.2290 2102.3161,861.0590 2106.6659,865.1031 C2110.9101,869.0490 2113.4738,873.0115 2117.3377,876.6645 L2129.5418,875.3390 C2131.2387,880.2843 2132.8150,897.5819 2142.1966,908.9193 C2156.5828,910.1300 2153.7317,909.2402 2161.4112,902.2762 C2168.1549,901.4414 2177.0721,903.5632 2184.2647,903.9889 C2192.5163,904.4774 2195.0455,907.6759 2201.0250,912.8294 L2201.5765,930.9758 C2221.4338,929.5373 2221.2498,927.1317 2241.8805,903.5213 C2249.6082,894.6773 2251.8910,896.2517 2249.5573,880.3327 C2245.6134,853.4279 2262.0755,864.1531 2271.6673,853.6339 C2283.9094,840.2079 2277.7774,841.6613 2288.0619,836.4401 C2295.0370,832.8994 2292.6611,832.6178 2295.8055,825.7695 C2299.1753,818.4291 2307.7990,814.9416 2315.1308,811.3563 C2328.7450,804.6996 2327.7942,816.0811 2340.8023,802.0303 C2363.1905,777.8480 2377.6724,785.2696 2382.5891,774.9849 C2388.9998,761.5750 2380.8616,764.7477 2395.1667,753.8657 C2399.3477,750.6856 2412.4483,739.5831 2415.5565,738.9400 C2423.1908,737.3600 2434.8956,745.2221 2442.6031,745.3208 C2454.7353,745.4766 2456.7321,735.1194 2462.1266,729.3224 C2471.1880,719.5847 2476.0780,730.2017 2486.3707,723.0857 C2491.1285,719.7964 2501.5970,710.3141 2503.7243,704.8192 C2483.1535,697.7801 2494.8941,719.9994 2474.2751,695.8067 C2470.4096,691.2714 2466.7529,689.4259 2466.6569,681.2691 C2481.2916,670.8909 2469.8452,683.9825 2494.1605,684.4431 C2511.4576,684.7706 2514.0967,688.9011 2527.0685,681.2381 C2526.0225,675.1826 2522.0665,667.8719 2524.6362,661.6929 C2533.0558,656.4010 2559.7559,655.2003 2571.3600,652.2438 C2565.0242,638.4982 2560.7097,657.8963 2547.9330,632.1558 L2524.8008,631.4202 C2523.0573,621.9815 2524.9322,614.9764 2527.3477,607.4697 C2530.6674,597.1527 2531.4958,599.6290 2539.6475,594.0096 L2535.1141,489.9973 C2524.1916,486.8094 2506.3978,480.8290 2496.2602,479.5017 C2486.1816,478.1824 2482.9760,481.0953 2478.7318,472.6250 C2473.7879,462.7581 2474.4479,464.1713 2466.9718,458.4284 C2458.2429,451.7233 2461.4610,453.1221 2449.0293,451.4408 C2431.8934,449.1234 2439.2566,436.6456 2416.1162,447.0932 C2404.2618,452.4454 2405.5719,456.6109 2396.9619,478.3474 C2389.4556,497.2976 2363.0708,513.1886 2347.7291,528.7216 C2343.2871,533.2189 2337.0879,536.3003 2327.8050,533.2647 C2318.6276,530.2632 2306.3093,518.6996 2295.1507,514.7620 Z"
     style="fill-rule:evenodd;fill:#00abc2;fill-opacity:1"
     id="path9" />
  <path
     d="  M3078.3011,694.8824 C3075.3789,699.2309 3074.4032,698.8279 3070.2050,701.8923 C3066.0392,704.9384 3065.2301,703.4575 3065.6045,703.9120 C3065.8587,704.2167 3067.1674,705.7583 3066.3998,708.8882 C3064.9712,714.7219 3059.4596,719.7314 3053.5136,724.0047 C3044.2204,722.5941 3046.7264,720.5041 3036.6237,723.3813 C3032.8925,736.9653 3037.5486,735.8546 3038.1728,746.6367 C3028.9670,750.6760 3025.0829,748.1831 3014.3935,754.5839 C2999.0061,763.8008 3006.8613,761.0594 2992.2094,758.6791 C2989.0003,764.1754 2984.8853,766.3029 2981.0292,769.8030 C2985.8611,786.2266 3005.3126,800.2372 3019.6363,811.6327 C3027.9775,818.2680 3031.4269,813.0385 3036.4203,820.7936 C3041.1087,828.0799 3036.7068,836.5187 3039.6940,845.3095 C3041.5710,850.8336 3046.3520,857.4078 3048.1364,862.8246 C3054.4571,882.0175 3044.5487,883.1749 3043.2912,897.4104 C3041.9733,912.2732 3043.0503,909.0450 3031.9167,915.6144 C3019.8306,922.7461 3024.0938,923.2945 2997.0223,911.5659 C2983.7433,905.8069 2965.0500,896.9838 2951.7477,893.2165 C2947.8041,899.7435 2949.1310,902.2740 2942.6763,906.7866 C2939.2179,909.2088 2939.2734,908.1968 2936.7119,911.4533 C2932.4258,916.9076 2937.9048,913.7541 2931.9356,917.9336 C2925.2405,919.5599 2920.6124,917.9244 2914.5231,921.3826 C2910.0427,923.9315 2907.9482,926.8134 2902.8023,929.3246 C2902.9457,934.7135 2904.0921,943.8085 2905.4745,948.9908 C2907.4674,956.4321 2909.3306,954.6045 2910.9539,964.9975 C2912.4332,974.5047 2911.4532,975.1985 2917.6718,979.6263 C2922.3326,982.9440 2926.1840,985.3570 2930.1185,988.5481 C2931.8477,1001.7340 2925.0652,1010.3461 2919.2993,1017.0700 C2910.0152,1027.8988 2901.8037,1022.0559 2896.7960,1032.9641 C2902.2750,1039.1165 2913.3857,1043.4418 2917.3991,1049.2428 C2920.6818,1053.9986 2919.9791,1058.3610 2920.9360,1064.1432 C2922.4201,1073.1072 2923.2894,1070.6379 2926.7759,1076.6541 C2929.7812,1081.8412 2930.1142,1103.0538 2928.1028,1110.7430 C2927.0762,1114.6605 2919.4058,1122.2323 2913.6399,1132.0447 L2894.5076,1130.5171 C2891.5713,1135.4793 2889.4031,1137.5082 2889.1394,1143.8575 C2892.7319,1147.2873 2895.6355,1148.8337 2900.0697,1153.1023 L2910.7178,1151.6497 C2920.2704,1166.2786 2909.4650,1162.0100 2919.2761,1172.0516 C2928.5788,1181.5775 2934.5294,1168.6261 2935.3480,1188.5219 C2927.8947,1194.2714 2929.4576,1187.0694 2927.0947,1197.4249 C2922.4248,1217.8922 2917.9815,1209.3687 2907.6199,1223.9416 C2898.8583,1236.2744 2916.6870,1262.7396 2910.7501,1274.7725 C2905.9462,1276.8576 2902.2474,1273.5356 2896.9813,1271.5627 L2895.3167,1274.7209 C2892.5656,1280.3346 2892.3945,1279.8893 2893.1945,1284.6782 C2894.9328,1295.0289 2916.9088,1307.4228 2919.7754,1308.5335 C2928.9441,1304.0633 2936.6934,1290.1745 2949.1263,1294.1527 C2958.7573,1297.2359 2955.5487,1299.1901 2965.2257,1294.6775 C2974.9356,1290.1513 2972.1289,1292.2692 2981.6905,1295.1603 C2990.4521,1297.8122 2991.5895,1297.9624 2997.6189,1293.6327 C3007.3331,1286.6556 3005.0722,1291.6226 3014.3887,1293.1455 C3028.7357,1295.4930 3026.3637,1276.5625 3044.5116,1283.8723 C3055.0210,1288.1081 3067.7176,1291.1210 3078.2455,1295.8820 C3084.3073,1298.6277 3087.4556,1301.4250 3092.5739,1304.5693 C3100.7350,1309.5874 3100.9246,1306.0969 3110.2781,1304.7142 C3144.2063,1299.6865 3134.5658,1315.2059 3161.4198,1342.0645 C3170.0246,1340.7901 3187.3863,1333.8784 3196.7351,1330.5612 C3203.3328,1328.2228 3207.4017,1326.0395 3214.5315,1325.9923 C3225.3597,1325.9177 3225.2119,1326.2172 3229.6785,1333.4379 C3235.1065,1342.2051 3269.3027,1350.9159 3282.4524,1371.9268 C3296.4806,1371.0881 3296.7946,1363.3238 3308.8394,1368.7454 C3315.7749,1361.6137 3315.0072,1361.8573 3328.2491,1362.9820 C3334.7456,1363.5347 3344.5524,1363.5067 3350.8309,1364.6545 C3348.5144,1373.3230 3344.4645,1376.6734 3342.1571,1382.5586 C3339.0549,1390.4731 3347.1462,1392.0008 3344.5338,1403.1949 C3339.1889,1426.1037 3335.1988,1417.5474 3359.9673,1435.4799 C3385.9799,1454.3118 3370.4582,1434.3600 3386.0540,1441.1542 C3406.0509,1449.8603 3413.4581,1462.7838 3425.7894,1469.0720 C3427.4768,1461.7761 3423.9537,1451.5377 3426.8573,1441.9602 C3429.0488,1434.7207 3432.6921,1426.6049 3431.9619,1416.7227 C3431.2312,1406.7889 3427.7775,1401.1286 3429.3542,1388.8237 C3430.3571,1380.9703 3459.0700,1303.0604 3459.4909,1296.3832 C3460.0919,1286.8429 3460.5080,1276.4079 3462.9817,1268.6152 C3459.4862,1265.3915 3459.6016,1266.8160 3456.0553,1262.4772 L3426.1362,1211.0884 C3414.4938,1188.8874 3407.6182,1171.3111 3396.5910,1148.3417 C3367.7721,1088.3171 3383.3628,1114.6418 3356.2499,1096.0016 C3328.5916,1076.9916 3280.8296,1038.8869 3250.7619,1016.5501 C3213.1073,988.5760 3217.1900,996.9729 3223.2005,957.7768 C3227.4960,929.7464 3231.3474,903.9422 3235.7398,876.5444 C3239.9798,850.1124 3243.0173,820.6199 3248.0525,797.3130 C3244.5157,793.0117 3242.2639,799.4077 3241.9218,781.8734 C3241.7784,774.5404 3240.3313,768.0977 3236.5721,764.3771 C3234.8153,762.6434 3212.8669,751.0554 3205.3718,750.9711 C3200.3784,760.5770 3203.1756,758.5010 3191.8989,761.7719 L3189.5313,762.5918 C3189.4020,763.0228 3189.3051,763.5899 3189.2723,763.9178 L3189.0134,767.8397 C3189.4946,773.4206 3192.6477,774.6858 3192.6942,780.4209 C3192.7493,787.1308 3187.7977,790.4908 3183.3635,793.1662 C3162.7746,805.5881 3177.6347,806.8629 3163.0336,817.0403 C3157.1152,813.6803 3099.1260,722.0789 3090.4751,707.6841 C3087.8118,703.2514 3082.1524,697.0051 3080.7838,692.6427 L3078.3011,694.8824 Z"
     style="fill-rule:evenodd;fill:#00abc2;fill-opacity:1"
     id="path10" />
  <path
     d="  M629.8498,1950.7681 C636.7517,1947.2794 637.7740,1943.8486 647.0216,1939.3884 C680.2299,1923.3721 673.2220,1922.6749 713.2176,1918.6687 C760.9576,1913.8868 769.3686,1917.1193 803.8227,1939.0042 C817.2319,1947.5221 823.4186,1955.1882 828.3879,1972.7832 C830.7629,1981.1915 839.4371,1992.5533 845.2119,2000.3115 C858.3656,2017.9833 855.4163,2018.1113 875.7389,2041.7836 C884.2701,2051.7213 894.5705,2049.2558 910.7118,2049.2960 L920.4634,2048.4490 C925.2190,2047.1449 924.1118,2042.2639 924.1260,2034.1315 L927.1985,1823.1481 C927.7504,1803.5483 925.6407,1787.2255 926.6945,1767.2205 C927.6957,1748.2145 927.1955,1728.2204 927.2308,1709.1082 C927.2692,1688.3899 929.8406,1610.2420 927.1783,1596.6654 L995.8785,1582.5461 L994.9734,1569.5937 C998.2764,1541.8943 986.0205,1487.9894 981.6306,1459.7979 C972.4322,1462.7633 973.4799,1459.8835 966.8723,1456.6231 C958.3932,1459.5395 956.9427,1464.5314 946.6457,1460.1092 C931.8447,1453.7520 942.7642,1450.4331 934.8577,1442.7312 C928.0950,1436.1435 923.7474,1438.0082 914.5933,1434.1662 C902.3241,1429.0170 904.6151,1419.4051 903.5407,1416.1573 C900.1223,1414.5764 894.9918,1416.4751 892.0374,1416.4952 C888.9219,1411.3622 885.1209,1402.1999 880.2455,1398.3737 C875.3254,1404.1930 876.4571,1406.1327 868.5919,1409.2461 C861.4480,1412.0739 856.8250,1412.7004 848.8177,1411.4801 C838.0947,1409.8464 840.8949,1413.1326 830.1335,1413.7194 C817.1922,1414.4249 820.6636,1411.3762 813.3753,1419.5788 C807.5479,1420.0927 782.0703,1418.0041 775.4377,1416.6244 C764.8904,1414.4306 755.9026,1408.7780 744.1461,1406.5733 C730.0257,1403.9249 684.5465,1394.6710 673.3581,1395.4586 L667.4777,1394.4457 C660.8791,1403.5110 654.1694,1415.9320 645.0119,1422.9677 C640.6500,1426.3185 638.5408,1426.4045 637.4918,1432.1173 C648.7900,1440.2457 658.0979,1449.1141 660.6969,1450.9718 C670.7216,1456.4969 687.8430,1450.2515 688.8907,1465.8635 C682.1198,1465.7683 680.7330,1464.9414 676.5960,1462.6821 C669.4715,1466.0809 677.7691,1468.8960 664.4677,1465.9844 C653.8674,1463.6635 660.1855,1465.9879 650.7601,1466.6428 C647.8125,1462.7554 649.9174,1462.8143 647.2447,1458.5427 C643.4468,1465.0532 649.3617,1462.0555 641.5961,1463.1972 C632.0293,1464.6039 628.0935,1458.1280 624.3240,1450.9858 C617.0490,1461.0269 583.5405,1453.3395 577.9405,1455.0094 C567.3807,1458.1585 558.2602,1453.6774 551.9753,1447.3468 C543.1744,1451.4193 556.3905,1450.7378 540.1834,1452.1349 C536.5341,1465.9281 527.0620,1461.0453 519.6919,1456.5445 C517.4285,1464.0045 516.4333,1462.9637 508.7978,1471.3200 C502.6046,1478.1753 504.9296,1484.2304 503.3172,1494.8666 C480.9556,1494.7950 501.8546,1497.7778 485.2455,1498.2261 C485.3928,1504.2646 486.4750,1504.1411 483.0247,1508.8833 C492.0276,1515.5343 496.3610,1511.3688 503.1229,1532.6910 C504.6445,1537.4930 503.2004,1542.9626 508.7461,1543.0954 C513.5095,1543.2093 515.9702,1542.0061 520.8288,1543.4355 C527.2637,1545.3294 529.4172,1547.6280 529.6167,1555.0889 C517.5435,1554.9165 510.3069,1556.4812 501.7478,1552.0708 C497.7034,1560.9554 487.4917,1560.2953 479.3121,1556.2878 C471.9549,1552.6829 467.8610,1545.1679 462.3519,1539.7218 C454.7198,1541.9222 462.2412,1540.6360 456.9664,1542.0436 C450.8219,1543.6839 447.0248,1541.3368 439.5560,1541.5965 C434.6833,1541.7664 430.8259,1542.6291 426.4795,1540.9408 C421.4637,1538.9923 424.4492,1537.6620 418.2353,1537.0674 C414.0169,1543.8978 417.4883,1544.4737 413.9152,1547.5499 C413.6395,1547.7874 411.4420,1548.6435 411.0211,1548.9282 C412.1295,1562.1433 409.9247,1565.4955 422.1853,1571.0917 L427.4540,1573.4990 C430.5213,1574.6084 434.7535,1574.9180 438.9047,1575.5493 C445.3344,1576.5272 450.9283,1577.7663 456.4986,1581.0599 C461.9844,1584.3038 463.3910,1586.4937 464.0350,1593.5311 C464.4546,1598.1135 464.3168,1602.8008 464.2849,1607.4557 C468.6338,1610.0508 460.4266,1604.7235 467.0506,1607.8552 C474.8740,1611.5540 476.4098,1627.7213 473.2598,1635.2569 C488.4106,1642.2777 477.3545,1654.6270 493.5126,1660.5057 C493.7754,1660.6013 494.4685,1661.2733 494.6589,1660.9297 C495.7579,1658.9436 499.3986,1674.2945 499.8160,1675.6611 C501.6207,1681.5677 500.6160,1685.6812 500.3907,1688.5955 C499.7631,1696.7182 503.8350,1685.5070 502.9488,1699.5871 C502.6486,1704.3568 501.1494,1709.7688 500.4799,1713.7287 C504.0099,1715.9125 502.9057,1714.3573 505.7210,1715.9134 C509.9894,1718.2718 507.4391,1716.7730 509.2308,1718.6503 L527.6587,1740.0367 C536.4742,1732.5230 534.5020,1732.3789 546.9215,1734.2261 L547.9150,1747.6128 C549.4926,1748.3288 550.6325,1748.5432 551.8684,1749.0785 C552.7666,1749.4675 553.7523,1750.5345 553.9660,1750.1224 C554.1344,1749.7975 554.6932,1750.4642 555.0219,1750.6934 C555.7370,1756.8017 556.0618,1762.8131 559.7930,1767.3912 C561.5390,1769.5327 561.0449,1768.6006 562.7000,1770.6630 C571.1330,1781.1704 574.6061,1773.3149 588.9100,1774.9259 C602.9261,1776.5046 595.1686,1776.9491 601.3412,1783.9821 L606.0270,1779.3328 C606.1282,1778.8212 606.4397,1778.6876 606.6870,1778.3977 C624.7224,1780.3082 613.5931,1775.4721 624.6738,1781.7262 L626.6822,1782.7889 C633.9368,1786.1336 644.3876,1790.0337 646.2926,1798.6410 C648.5509,1808.8459 645.4224,1807.5182 640.3299,1810.7608 C640.1960,1822.0523 634.1398,1837.4814 630.7218,1847.3326 C627.5498,1856.4756 628.3046,1862.7390 624.4683,1870.5653 L619.2198,1883.5390 C618.3604,1885.2011 617.7930,1885.8171 617.2157,1887.6412 C615.2724,1893.7792 618.5258,1899.1859 621.5005,1903.4789 L623.9414,1907.2445 C624.9154,1909.3017 624.4032,1907.9959 625.1515,1910.6626 C628.3868,1922.1973 628.4118,1937.8329 629.8498,1950.7681 Z"
     style="fill-rule:evenodd;fill:#00abc2;fill-opacity:1"
     id="path11" />
  <path
     d="  M2300.2531,1954.0063 C2318.4859,1959.5951 2309.9806,1921.0163 2342.7262,1909.6994 C2368.9555,1900.6345 2355.7205,1904.6315 2374.1376,1896.8764 C2388.8594,1890.6768 2394.5533,1900.0002 2409.0751,1899.9831 C2423.6130,1899.9657 2435.5750,1902.6843 2451.2118,1901.0510 C2459.5176,1900.1840 2480.0905,1904.1980 2487.3797,1906.9555 C2500.2645,1911.8300 2514.4581,1908.2962 2529.3091,1909.0171 C2543.3321,1909.6977 2538.0793,1920.7312 2559.0266,1921.0892 C2555.9925,1913.2341 2551.7913,1917.6676 2550.9792,1901.1776 C2550.4765,1890.9684 2551.2334,1886.2602 2556.6171,1880.1655 C2570.9555,1863.9339 2552.7149,1849.8412 2572.3495,1840.6078 C2577.0987,1838.3746 2578.8775,1838.4419 2583.3139,1836.2349 C2586.7413,1834.5291 2588.6058,1832.2419 2592.0923,1831.1451 C2596.9896,1829.6048 2600.2943,1831.0072 2604.1004,1829.5437 C2610.5189,1827.0757 2605.8667,1826.3544 2610.6701,1822.4326 C2617.2140,1817.0896 2626.0614,1823.5463 2633.5138,1821.2459 C2640.0245,1819.2358 2640.4200,1813.4213 2654.6200,1815.9614 C2674.6264,1819.5406 2680.0601,1824.0161 2695.1791,1831.8996 C2704.4116,1836.7138 2707.0308,1835.2740 2715.8446,1838.6593 C2719.2216,1839.9564 2721.5828,1841.6041 2725.8361,1842.3533 C2730.3643,1843.1514 2733.8146,1842.2812 2738.0524,1843.9014 C2756.9245,1851.1178 2736.8478,1855.2790 2782.9970,1855.4278 C2805.9776,1855.5016 2815.9446,1860.8900 2823.8011,1841.6556 C2818.8293,1841.9110 2815.0576,1842.6672 2810.6785,1841.3260 C2806.7207,1840.1140 2809.7829,1841.6966 2807.3717,1839.3993 C2799.9912,1834.3912 2804.7692,1832.6444 2795.2683,1830.4187 C2785.7713,1828.1934 2788.1674,1829.1063 2780.7943,1823.8165 C2744.7190,1797.9351 2769.7442,1796.6104 2775.4963,1783.0373 C2772.2631,1776.6395 2774.0169,1776.6024 2766.3232,1775.6061 C2759.6165,1774.7373 2756.9904,1774.2330 2750.8127,1772.5177 C2740.7173,1769.7143 2734.0097,1765.2384 2731.8923,1756.8541 C2732.6850,1750.7938 2759.5838,1735.9677 2760.4661,1735.2914 C2761.0649,1728.4745 2760.0146,1725.5982 2760.6526,1719.0376 C2761.2669,1712.7145 2761.5228,1708.1447 2761.2790,1701.6342 C2748.8939,1693.5447 2735.9363,1685.7166 2722.9321,1677.5729 C2692.2276,1658.3446 2712.5007,1680.9626 2678.3240,1659.6360 C2667.4596,1652.8567 2669.2044,1652.9837 2668.5375,1638.4418 C2668.0920,1628.7290 2666.5933,1621.1162 2658.4305,1616.6132 C2651.9400,1613.0323 2644.7280,1609.9591 2638.1962,1606.3551 C2632.8934,1603.4286 2633.2644,1603.4487 2629.9942,1599.2421 C2625.7185,1593.7420 2626.3423,1592.6981 2622.6960,1590.4636 C2603.1729,1593.5324 2602.6224,1571.9055 2600.4322,1567.4571 C2597.8904,1562.2944 2594.3157,1560.3324 2589.4519,1557.1767 C2578.7805,1550.2537 2554.8995,1527.5191 2552.9545,1526.2901 C2538.5455,1517.1855 2528.8128,1519.8980 2529.8420,1504.8924 C2532.0744,1503.5739 2536.0003,1502.5785 2538.3994,1501.5805 C2538.5692,1497.1988 2539.0116,1495.9362 2540.2226,1492.9910 C2534.5429,1490.0121 2535.5281,1491.2861 2532.7887,1485.0948 C2510.7433,1472.1355 2528.0779,1465.5622 2493.8335,1470.0465 C2378.4043,1485.1616 2257.9524,1503.0221 2143.2512,1516.7611 C2136.8323,1517.5300 2133.7740,1519.7583 2133.5310,1519.3082 C2133.3583,1518.9877 2132.8327,1519.6928 2132.5199,1519.9386 C2149.1148,1533.6580 2141.4940,1540.6208 2143.6979,1549.9049 L2154.6743,1578.9446 C2158.9927,1589.5590 2179.7978,1646.4069 2184.2449,1652.0791 C2188.0381,1656.9170 2190.3313,1658.1123 2187.9076,1666.4796 C2185.0837,1676.2286 2197.1470,1718.2255 2199.5913,1730.3963 C2205.2658,1758.6494 2198.0068,1753.4679 2193.4033,1761.4746 C2196.2070,1767.3716 2199.5922,1768.0208 2196.2862,1776.6840 C2181.4313,1815.6143 2185.1673,1779.9607 2178.8913,1823.8812 C2175.3123,1848.9274 2185.2952,1853.9094 2206.9050,1858.4639 C2215.6822,1860.3137 2215.0885,1861.0533 2220.9431,1865.9121 C2229.4019,1872.9320 2235.8053,1876.9050 2241.0137,1888.7637 C2242.6430,1892.4734 2246.6929,1899.9801 2246.7765,1904.7280 C2246.9105,1912.3229 2240.7660,1917.9746 2249.7124,1919.6834 C2259.0888,1921.4747 2259.7811,1916.1116 2266.0781,1924.9683 C2268.4755,1928.3405 2271.8913,1935.1980 2274.7915,1937.6643 C2284.9037,1946.2643 2289.9548,1936.6567 2300.2531,1954.0063 Z"
     style="fill-rule:evenodd;fill:#00abc2;fill-opacity:1"
     id="path12" />
  <path
     d="  M202.4148,1073.4997 L196.1165,1076.0896 C196.1949,1082.9737 203.8869,1093.5200 206.8788,1099.3930 C223.1919,1131.4138 236.6842,1149.1389 251.9427,1184.6284 C258.7007,1200.3474 281.4258,1233.0493 280.1171,1253.4782 C277.7322,1254.7264 267.3180,1256.8312 272.5781,1261.8647 C275.7772,1264.9265 284.8524,1263.8123 289.8252,1264.6095 C302.2085,1266.5956 316.7300,1261.6839 317.0113,1277.8548 C309.4137,1290.2810 296.4750,1278.4276 286.3783,1284.2770 C285.0945,1287.2170 301.9518,1294.3487 307.0727,1298.0152 C335.3961,1318.2944 318.0525,1301.2350 340.7962,1316.3096 L340.9177,1306.0493 C364.2551,1300.3881 405.0864,1307.0434 410.7200,1290.1762 C381.2359,1286.1395 373.8356,1296.6722 373.2855,1282.4752 C379.6067,1276.5005 375.0449,1286.3382 386.7752,1275.0803 C397.3393,1264.9409 399.7535,1258.4357 405.5064,1269.5989 L409.6731,1258.0659 C424.7636,1256.1392 411.8435,1252.2793 423.1201,1252.2684 C434.3968,1252.2575 433.2060,1263.8272 436.4728,1260.4584 C439.7396,1257.0897 439.9459,1251.9253 443.9407,1249.3228 C447.9356,1246.7202 453.9121,1262.8885 455.4091,1252.6291 C456.9061,1242.3696 450.9395,1249.1145 472.3206,1241.9182 C493.7017,1234.7219 498.2880,1231.6339 528.6599,1249.0735 C535.8853,1253.1909 537.9686,1249.7585 541.1949,1253.3355 C546.0104,1258.6745 537.5835,1265.8569 552.0205,1273.1466 C557.8389,1276.0844 554.5131,1272.3066 558.0543,1277.7234 C561.6304,1274.3498 562.5458,1272.7572 569.1935,1273.0230 C580.3689,1288.9695 576.4547,1296.4784 587.8368,1294.2103 C584.9970,1288.2098 582.2666,1292.4600 583.8201,1279.5496 C593.5208,1279.2567 589.0340,1281.3602 597.5682,1282.9956 C611.6153,1256.5750 631.4804,1284.2338 648.3751,1284.2329 C663.5794,1284.2325 658.7238,1286.1194 661.3987,1293.0809 L670.4485,1295.1455 C670.9612,1306.1668 675.2149,1297.0158 671.8581,1326.4734 C672.4229,1333.1454 675.8327,1340.1828 678.7522,1346.3103 C681.4232,1353.1115 670.2443,1375.1440 671.0995,1387.6873 C689.1332,1391.6716 709.3093,1394.1313 727.2643,1397.2726 C763.0668,1403.5368 761.6809,1406.9108 779.1426,1410.8693 C783.9951,1411.9691 805.4775,1413.7128 809.5946,1412.4052 C814.8228,1410.7449 811.3071,1408.6008 821.0289,1407.8250 C826.8211,1407.3631 829.8651,1407.8398 835.3716,1406.3087 C849.4540,1402.3920 851.4387,1408.8379 863.8152,1404.3781 C874.6977,1400.4562 873.0111,1392.6530 880.2455,1388.7477 C887.9276,1391.9567 890.1018,1402.0572 895.4429,1409.5648 C919.3015,1403.4076 902.3301,1424.5843 919.7547,1429.1266 C949.4490,1436.8678 940.7218,1446.8474 945.5954,1452.0581 C960.6011,1460.8065 958.2351,1447.1639 969.2081,1450.8051 C972.2439,1451.8123 976.2370,1457.6565 979.2039,1452.4436 C983.6050,1444.7116 970.8361,1433.4755 967.0123,1419.3125 C963.2139,1405.2430 964.7872,1407.6787 952.5736,1401.7616 L888.7939,1369.3583 C877.4591,1363.9001 878.5421,1364.8986 872.6333,1354.8815 C864.6243,1341.3040 858.5818,1327.9046 850.3122,1312.7693 C839.7369,1293.4153 843.6025,1290.6993 846.3609,1259.0220 C848.1091,1238.9485 849.7147,1220.1900 852.0182,1200.1619 C854.2140,1181.0737 855.0346,1185.4409 846.5535,1174.9344 C841.7423,1168.9749 843.6438,1156.2798 843.1471,1147.2651 C838.7715,1143.8872 835.8881,1144.1369 834.9162,1137.5955 C834.2076,1132.8253 835.2600,1124.4554 835.3061,1119.2150 C831.4078,1112.9674 827.1657,1113.1561 824.9303,1105.3533 C827.7115,1099.1245 833.5265,1094.7900 837.8814,1089.9513 C838.3355,1081.5701 837.9965,1073.8337 832.6606,1070.4720 C829.3076,1068.3597 820.1738,1062.9997 817.9349,1062.2938 C812.7377,1067.3338 816.2432,1068.7854 810.3666,1074.5702 C796.6999,1088.0216 797.8626,1082.0521 771.2615,1064.8740 C754.6619,1054.1540 757.0063,1058.3356 756.7599,1034.4996 C756.4855,1008.0064 756.0030,1017.8236 742.8192,1004.3517 C737.3342,998.7472 724.0893,972.4091 721.4183,987.2413 C717.6957,1007.9134 706.4269,1003.1642 691.5603,1000.9551 C662.8802,996.6931 665.2332,994.8341 649.4836,1002.3674 C649.3936,1009.4865 651.0935,1020.7972 650.2866,1028.2144 C649.2467,1037.7744 641.2450,1037.5819 638.1135,1046.8258 C646.1255,1060.0226 655.1749,1054.5539 643.6462,1070.0712 C625.9610,1071.1998 611.1315,1067.1535 597.6143,1060.5806 C589.8211,1056.7914 588.1492,1053.7135 577.8147,1052.8866 C571.9231,1052.4155 560.9312,1050.9573 556.6456,1048.2578 L528.6323,1022.7352 C521.6279,1016.6169 522.7446,1013.0351 509.4802,1013.6956 C480.0582,1015.1613 479.9958,1006.9276 475.9910,1034.6878 C441.7225,1048.8442 423.5832,1043.2017 408.0098,1064.1689 C396.9602,1079.0457 398.8570,1078.4218 376.8409,1082.1001 C363.3749,1084.3499 351.1001,1075.1330 339.2074,1071.7193 C326.2050,1079.9870 334.1830,1085.3662 310.1728,1081.0527 C297.3383,1078.7471 248.0159,1069.5355 238.8911,1069.7629 C226.8813,1070.0624 214.2472,1072.6685 202.4148,1073.4997 Z"
     style="fill-rule:evenodd;fill:#00abc2;fill-opacity:1"
     id="path13" />
  <path
     d="  M2983.2931,1367.1588 C2990.4913,1366.8776 2998.1768,1366.5175 3003.8811,1366.1175 C3011.2607,1365.5997 3014.1729,1368.3948 3019.2874,1371.2270 C3031.0986,1377.7675 3022.8376,1366.9837 3034.5562,1374.0722 L3048.5232,1381.3379 C3044.9252,1368.6751 3046.3985,1357.7525 3061.1569,1365.1920 C3063.0365,1359.7617 3067.2002,1355.1705 3071.4272,1351.3377 C3075.5301,1347.6175 3081.9775,1349.6262 3089.9904,1349.8262 C3094.5405,1342.7539 3100.8496,1337.6383 3109.7474,1345.1394 C3113.2808,1340.2889 3112.4175,1334.5722 3123.0875,1336.6599 C3132.4881,1338.4989 3133.1993,1350.0742 3134.7437,1354.1249 C3136.1860,1357.9079 3135.0453,1354.1506 3136.9559,1358.2174 C3142.5451,1370.1141 3131.3727,1370.1394 3128.2464,1379.5850 C3126.0984,1386.0749 3123.8156,1389.6729 3119.6149,1394.1339 C3107.3482,1407.1614 3104.9926,1403.1858 3086.6185,1403.8153 C3075.9032,1404.1825 3077.8323,1397.4058 3068.2367,1402.1266 C3067.5341,1409.1068 3073.9939,1404.4523 3070.6522,1412.2747 C3068.5072,1417.2959 3064.5620,1417.3164 3060.3100,1414.3703 C3047.5944,1405.5604 3051.7521,1409.1561 3035.8680,1411.3002 C3015.6449,1414.0293 3020.9201,1406.9522 3010.5499,1404.9937 C3005.6478,1404.0677 2999.4623,1405.1836 2995.1707,1405.2914 C2985.8085,1405.5259 2991.5442,1405.1548 2985.1262,1401.4324 C2971.8122,1412.2371 2969.9796,1396.3200 2960.1147,1394.4684 C2958.6414,1394.1916 2948.7752,1395.9973 2946.7504,1396.5286 C2936.2320,1399.2888 2942.0047,1398.0916 2933.4542,1395.2106 C2928.5891,1398.9779 2929.0324,1402.4501 2921.0363,1398.5212 C2902.0712,1389.2031 2914.5278,1403.3892 2893.5577,1392.1776 C2886.2910,1388.2924 2857.1796,1393.8781 2841.3248,1392.7535 C2826.7767,1391.7214 2834.4320,1395.9785 2822.5109,1387.3336 C2819.5935,1389.5493 2818.5871,1388.9167 2818.8917,1393.3765 L2832.7467,1463.8993 C2834.1063,1470.7253 2834.1102,1479.3650 2838.8374,1482.8643 L2872.0099,1503.0836 C2890.7803,1514.4747 2891.2348,1511.1121 2893.5758,1523.9326 L2917.7601,1647.1740 C2920.4952,1662.9506 2918.8466,1662.6878 2925.7510,1667.3729 C2926.0164,1667.5532 2926.4067,1667.7889 2926.6790,1667.9697 C2926.9551,1668.1526 2927.3390,1668.3953 2927.6181,1668.5800 C2956.9169,1687.9672 2955.3673,1692.4776 2992.8582,1705.4134 L3072.1320,1732.0336 C3078.5953,1732.5553 3109.8426,1727.7598 3118.7296,1726.5474 C3126.5335,1725.4825 3132.6289,1722.5587 3138.9458,1719.7881 L3195.1308,1696.4131 L3284.7391,1679.8445 C3280.3372,1673.7680 3281.0364,1675.5161 3279.1719,1666.9411 C3277.1243,1657.5225 3277.0885,1661.9238 3272.9925,1656.0551 C3266.2466,1646.3899 3275.9827,1639.7310 3271.5816,1629.9833 C3265.8270,1617.2384 3263.7738,1622.2351 3263.6191,1604.4192 C3263.5717,1598.9653 3262.7002,1593.1657 3263.8220,1587.9148 C3264.7917,1583.3760 3267.8405,1580.2605 3266.3603,1577.2354 C3259.6510,1564.7808 3245.4863,1576.7447 3227.3642,1574.5451 C3225.2546,1570.7066 3219.3134,1557.2601 3221.4782,1553.0169 C3225.8728,1548.6261 3241.1304,1542.8308 3248.0655,1541.2752 C3258.4917,1538.9360 3254.2789,1539.5258 3261.2027,1536.2405 C3271.6846,1531.2668 3316.7257,1521.8994 3332.4357,1514.4407 C3340.7234,1510.5057 3349.2998,1503.6193 3357.2666,1501.1072 C3359.8057,1500.3065 3361.3743,1500.2436 3364.1594,1498.8815 C3382.8040,1489.7637 3383.0311,1497.2499 3398.6235,1504.1616 C3415.9395,1511.8373 3418.8289,1507.0924 3428.9053,1507.1522 C3440.8359,1507.2230 3443.7598,1512.2778 3446.6354,1502.1406 C3454.6750,1473.7998 3433.5537,1475.7824 3425.9134,1473.5414 C3414.3025,1472.7791 3409.3991,1459.0361 3383.3059,1445.8921 C3366.6033,1453.9804 3369.9619,1446.9089 3347.9932,1433.7532 C3342.9149,1430.7119 3340.0858,1430.4814 3337.3770,1426.0220 C3329.5303,1413.1042 3341.6600,1407.0946 3338.9240,1395.3931 C3337.5992,1389.7283 3333.9710,1388.4836 3335.6973,1382.2207 C3337.0577,1377.2851 3340.0100,1374.8550 3341.0874,1368.8667 C3309.8733,1368.3337 3320.2621,1367.4199 3311.8766,1376.4158 C3300.0106,1376.3630 3307.7055,1370.5847 3298.5527,1373.4645 C3292.0231,1375.5191 3290.5592,1377.4955 3283.0008,1378.0644 C3273.4168,1373.0467 3265.5306,1359.6158 3253.4160,1354.0493 C3247.2482,1351.2150 3240.5140,1348.4025 3234.4423,1345.5952 C3226.8851,1342.1016 3226.1799,1338.6006 3221.9852,1332.1858 C3198.4394,1330.3390 3179.6241,1346.3693 3159.3101,1348.5775 L3129.8696,1310.1437 C3096.0238,1309.3953 3103.0019,1317.6805 3086.6474,1307.4150 C3075.8140,1300.6151 3061.9970,1297.8432 3048.9674,1293.2441 C3038.8319,1289.6667 3038.5131,1287.9038 3029.9204,1293.9567 C3024.9106,1297.4860 3020.3734,1301.9877 3012.9318,1299.0582 C2999.8608,1293.9134 3005.1773,1298.4959 2995.0113,1301.8209 C2987.7924,1304.1816 2980.2111,1300.4405 2972.5166,1299.7471 L2983.2931,1367.1588 Z"
     style="fill-rule:evenodd;fill:#00abc2;fill-opacity:1"
     id="path14" />
  <path
     d="  M3374.2798,831.3163 C3358.2609,831.9738 3361.3338,828.1327 3351.3905,826.9081 C3349.6983,829.9734 3349.7715,831.6132 3348.4632,834.3677 C3335.0623,833.2915 3333.6794,827.3613 3323.1821,822.9583 C3304.3001,815.0385 3312.8329,824.0838 3297.0510,826.9788 C3262.9113,833.2408 3291.8766,792.6157 3256.5647,794.6965 C3247.1371,839.0763 3235.7213,948.9153 3226.7619,983.6779 C3225.5471,988.3913 3227.6675,988.2783 3229.6354,989.7731 L3333.5859,1067.7594 C3339.9152,1072.4973 3345.5501,1076.7462 3351.8958,1081.5417 C3394.1638,1113.4870 3372.4915,1078.9418 3398.8307,1133.0816 L3464.6864,1261.6149 C3482.3466,1248.1597 3480.2611,1273.7674 3536.8498,1275.0658 C3544.5444,1275.2427 3550.2322,1277.2422 3557.8643,1276.1826 C3564.8377,1275.2143 3571.3376,1274.2018 3579.2936,1273.2588 C3605.2597,1270.1800 3601.6789,1278.3176 3608.6501,1288.2103 C3652.1304,1245.1533 3670.5997,1275.3929 3667.6220,1231.5763 L3654.6933,1185.9797 C3649.9075,1166.4248 3652.4182,1154.7286 3651.9930,1132.9986 C3651.7332,1119.7123 3650.3331,1121.4434 3655.0745,1109.7515 C3659.1262,1099.7589 3660.7490,1100.4495 3672.7395,1098.2260 C3689.6247,1095.0956 3701.4093,1088.1722 3713.8151,1081.3775 C3727.1531,1074.0721 3730.5767,1059.3459 3726.7029,1039.0825 C3722.9360,1019.3770 3733.1572,1009.6288 3741.5806,999.0799 C3738.5577,992.6620 3729.1494,976.2262 3723.3345,973.3831 C3712.0195,967.8511 3718.9498,971.2761 3712.7407,962.4072 L3700.9376,951.3471 C3686.7965,955.6405 3688.7481,969.7524 3684.6839,982.5973 C3670.6402,987.1226 3666.4003,973.8555 3643.3421,968.7679 C3637.8877,974.4855 3639.5071,974.4196 3628.8366,980.0686 C3610.8050,989.6147 3596.4248,956.9285 3589.7461,943.9098 C3577.4838,920.0078 3581.2576,916.6448 3570.7995,909.2035 C3558.7944,900.6621 3545.9406,897.0860 3532.4768,894.2346 C3519.2253,891.4282 3516.2507,875.5141 3511.2379,863.2153 C3506.9824,852.7738 3497.0063,839.5041 3490.4082,830.4593 C3481.3907,818.0977 3477.7595,812.8883 3461.9947,805.4654 C3453.9814,801.6924 3429.8604,792.7799 3421.6657,793.0532 C3419.1809,797.4265 3418.2426,803.7029 3412.9717,805.8391 C3406.9685,808.2718 3398.1526,804.5966 3394.5438,808.8154 C3389.9450,814.1911 3395.8116,817.1398 3386.1135,821.8017 C3374.7295,827.2739 3380.5604,819.5825 3374.2798,831.3163 Z"
     style="fill-rule:evenodd;fill:#00abc2;fill-opacity:1"
     id="path15" />
  <path
     d="  M1860.3378,1987.2527 C1856.5011,1992.5721 1857.3601,1993.6251 1858.5004,2000.6948 C1859.4111,2006.3382 1859.6050,2012.9272 1863.3271,2014.2322 L1870.8187,2015.7986 C1900.1128,2019.4800 1893.0300,2010.9940 1905.8286,2052.9053 C1909.3655,2064.4876 1911.9611,2074.1471 1915.4389,2084.7860 C1924.7615,2113.3014 1926.0879,2108.9853 1972.9603,2109.4066 C1986.8067,2109.5310 1998.7580,2111.0647 2011.0294,2112.4518 C2045.3263,2116.3278 2053.2168,2115.7262 2053.7286,2150.9136 C2068.5249,2160.9137 2066.7926,2167.3744 2083.9678,2171.1063 C2102.8020,2175.1989 2093.4364,2157.7995 2093.5057,2146.4696 C2093.5910,2132.4559 2100.1035,2129.6910 2120.1486,2120.0039 C2128.2386,2116.0947 2132.2089,2118.0406 2136.7491,2110.8063 C2146.1070,2095.8946 2138.2673,2082.8593 2156.8154,2077.1221 C2177.6834,2070.6675 2179.9356,2078.0184 2188.4711,2056.9311 C2200.9522,2026.0956 2203.8106,2045.8426 2214.6009,2029.5325 C2220.8410,2020.0999 2212.1531,2024.6042 2225.0474,2012.2933 C2230.6228,2006.9699 2229.2528,2001.7051 2234.7667,1995.9932 C2248.1353,1982.1446 2256.4234,2001.0629 2269.7124,1983.7211 C2275.3214,1976.4012 2272.6431,1973.5813 2282.3766,1970.2147 C2291.4777,1967.0669 2294.2663,1967.3009 2297.4938,1959.7977 C2286.2702,1953.5449 2305.3353,1956.5543 2276.1679,1945.5989 C2266.5990,1942.0045 2265.7335,1933.6783 2258.6765,1925.9004 C2247.3133,1925.6603 2246.4039,1927.8249 2238.9661,1920.1143 C2237.0723,1905.0581 2245.0352,1912.3434 2236.3137,1893.4596 C2229.9839,1879.7533 2217.2343,1866.6670 2201.8513,1863.7540 C2164.7658,1856.7315 2170.7927,1834.6034 2175.3377,1804.9323 C2177.3034,1792.1000 2182.1913,1794.7466 2186.6776,1784.0925 C2195.3794,1763.4266 2186.5010,1767.0468 2186.2865,1761.4746 C2190.4700,1748.1363 2198.4200,1760.1168 2193.3805,1736.5985 L2180.3328,1673.0891 C2179.4152,1663.5710 2183.9632,1665.6396 2181.7945,1659.2684 C2181.0074,1656.9558 2176.8804,1652.6799 2174.8186,1647.7599 L2143.1306,1565.8936 C2136.8723,1549.5521 2137.7214,1554.5454 2137.5022,1535.0665 C2133.7934,1529.1083 2129.1188,1525.3851 2125.4552,1519.0868 L1956.5753,1527.6279 C1965.6186,1547.2080 1976.4843,1531.8929 1964.2819,1564.7720 C1959.7171,1577.0712 1966.3971,1577.1716 1963.5680,1588.4309 C1961.3933,1597.0862 1958.8602,1599.6516 1958.0335,1610.5773 C1965.5027,1615.5671 1973.5725,1621.3144 1981.3523,1626.6429 C1991.9070,1633.8716 1988.3985,1643.8450 1988.5963,1658.2979 C1988.9288,1682.5928 1989.2166,1708.4769 1990.6951,1732.7731 C1995.5658,1736.6985 2003.5795,1737.4412 2009.2713,1741.5364 C2016.3110,1746.6013 2013.1954,1750.8659 2021.3268,1757.1296 C2039.3959,1771.0490 2044.8265,1771.4127 2044.4306,1787.9568 L2034.7113,1792.2786 C2033.6249,1811.1192 2035.4601,1806.2822 2020.4609,1815.7658 C2019.7091,1828.0410 2023.3072,1834.5728 2016.4544,1842.5323 C2012.2128,1847.4588 2006.3793,1853.6304 2002.2285,1857.0694 C2006.1992,1871.3105 2006.0118,1872.4256 1997.2851,1881.6398 C1990.2902,1889.0256 1987.2384,1894.2363 1979.8368,1899.3758 C1950.0667,1920.0492 1928.5478,1935.3447 1899.7539,1958.3609 C1890.5537,1965.7148 1869.8865,1982.5881 1860.3378,1987.2527 Z"
     style="fill-rule:evenodd;fill:#00abc2;fill-opacity:1"
     id="path16" />
  <path
     d="  M2627.6833,1587.2429 C2637.7214,1596.7894 2632.1839,1597.6368 2647.6798,1604.4419 C2686.2085,1621.3624 2667.4381,1632.8600 2676.0114,1649.6604 C2678.3537,1654.2503 2692.9557,1662.9602 2699.3720,1663.4828 C2716.8699,1664.9079 2712.8419,1664.6210 2726.1330,1672.7805 C2772.7473,1701.3963 2769.8942,1689.5874 2765.9760,1739.8834 C2760.9154,1742.7632 2755.9000,1743.3268 2750.6890,1747.1950 C2746.3013,1750.4515 2743.2470,1753.6950 2738.9657,1756.6882 C2742.5990,1765.7863 2750.5861,1766.9407 2762.0911,1768.9948 C2772.2226,1770.8041 2775.9155,1767.4157 2782.6631,1785.0949 L2767.8509,1799.5448 C2770.1156,1808.8625 2771.1603,1809.6461 2777.7067,1814.5883 C2805.1418,1835.3028 2793.8829,1816.7228 2807.8645,1831.7599 C2813.7570,1838.0974 2816.9678,1833.9764 2825.8311,1836.6091 L2875.7053,1835.7800 C2887.9594,1835.2115 2889.4470,1836.0275 2898.7178,1832.5518 C2906.9082,1829.4809 2909.6292,1828.7552 2919.4764,1827.2128 C2941.5769,1823.7502 2927.5147,1811.5139 2957.9508,1816.8756 C2988.9745,1822.3404 2980.7109,1828.6230 2998.4457,1824.3121 C3016.7435,1819.8645 3049.1841,1817.0891 3069.0065,1819.7187 C3084.9475,1821.8335 3080.3344,1817.6191 3089.4454,1814.9228 C3110.3208,1808.7446 3121.8171,1815.5689 3133.4574,1817.5069 C3175.5944,1824.5234 3166.7281,1813.8003 3175.0973,1814.0911 C3183.0094,1816.6277 3187.6982,1826.7194 3195.6939,1831.5167 C3201.0586,1834.7357 3202.1442,1834.7348 3206.7542,1838.7929 C3219.8644,1850.3333 3238.1402,1841.4954 3252.9258,1844.2280 C3259.5670,1845.4557 3260.1947,1847.9298 3264.7176,1850.9117 C3282.2805,1862.4892 3275.7436,1846.0481 3275.7311,1845.9582 C3274.9737,1840.5436 3275.7108,1839.0924 3276.0981,1834.6645 C3276.9403,1825.0460 3269.6378,1803.7443 3278.3008,1793.6962 C3281.2091,1790.3222 3289.2914,1788.1690 3293.6563,1784.9111 C3289.8833,1774.5945 3285.6029,1782.3471 3286.3671,1766.4740 C3290.1091,1763.6527 3297.1720,1758.8476 3302.0694,1756.2049 C3308.6568,1752.6506 3311.2433,1752.0787 3315.8972,1746.0730 L3304.6990,1713.3266 C3298.2387,1701.9704 3290.2852,1694.9845 3289.0738,1685.7611 C3262.2035,1693.8420 3213.9809,1698.5707 3198.2231,1703.8521 C3175.5824,1711.4405 3143.4188,1731.2254 3120.3399,1734.4920 C3110.0649,1735.9467 3078.4880,1740.7208 3070.1482,1739.6909 L2967.7744,1705.6504 C2959.9015,1702.8244 2925.2870,1678.2653 2919.0030,1673.1922 C2911.2037,1666.8957 2909.3858,1645.5512 2906.4985,1630.9442 C2904.1119,1618.8708 2888.2145,1524.1159 2882.2604,1519.3078 L2831.7253,1488.9298 C2827.9549,1485.8589 2828.4365,1486.0689 2827.0390,1478.8782 L2820.6666,1445.2944 C2818.0176,1432.0042 2814.1710,1414.2887 2811.8800,1399.1787 L2812.3371,1396.2043 C2801.3435,1395.9873 2806.7892,1392.0575 2796.9708,1393.5646 C2791.3829,1394.4225 2794.8724,1394.7919 2789.9626,1395.7690 L2781.3978,1396.8823 C2778.1832,1397.8633 2778.2271,1399.5529 2770.2164,1397.2883 C2759.0117,1394.1200 2767.2141,1394.6242 2760.2003,1390.0200 C2755.2840,1392.5264 2759.8044,1390.1361 2752.5268,1397.9358 C2748.3300,1402.4335 2750.2755,1402.4078 2743.4830,1403.9302 C2740.2232,1401.3041 2740.7027,1398.9089 2738.9234,1395.6900 C2731.8674,1401.0674 2739.0389,1402.1074 2729.5397,1405.3299 C2723.1135,1407.5102 2720.1582,1407.8219 2716.1272,1404.6457 C2713.0060,1408.6309 2714.0723,1411.2688 2707.1054,1411.0797 C2702.1025,1410.9440 2698.3687,1407.7630 2693.8035,1409.2884 L2693.1918,1413.4827 C2693.1035,1414.7899 2693.2077,1416.6812 2693.1685,1418.0796 C2692.7425,1433.3891 2684.4301,1426.4342 2684.8355,1436.2880 C2685.0682,1441.9462 2689.3792,1443.6904 2683.6396,1448.2039 L2673.1505,1450.2567 C2672.3983,1448.4431 2666.5196,1458.1136 2665.5309,1459.2147 C2651.6957,1474.6215 2657.3974,1458.7038 2642.2535,1458.8549 C2633.6986,1458.9400 2632.9779,1456.2201 2627.3042,1460.4685 L2626.9299,1469.9177 C2637.4612,1476.1565 2631.5735,1471.3431 2633.7779,1480.9704 C2635.1995,1487.1787 2635.8074,1480.7848 2636.5216,1487.5559 C2636.8986,1491.1268 2635.9375,1491.3416 2634.5033,1493.4813 C2639.3012,1496.7688 2639.6751,1495.2674 2640.0667,1503.0666 C2636.9184,1505.4495 2635.7553,1505.1762 2632.9908,1507.3382 C2642.7786,1520.9018 2625.4677,1515.2815 2611.8669,1524.2853 C2612.3442,1528.3880 2611.0794,1538.6194 2611.0824,1538.6417 C2611.6847,1542.8971 2616.6983,1540.5112 2622.0291,1542.8072 C2623.4895,1552.3244 2622.2152,1557.7560 2621.8692,1567.4230 C2637.5638,1576.3736 2621.1390,1574.1810 2627.6833,1587.2429 Z"
     style="fill-rule:evenodd;fill:#00abc2;fill-opacity:1"
     id="path17" />
  <path
     d="  M511.1120,1634.6973 A13.3017,13.3017 0.0000 0,1 524.4137,1647.9991 A13.3017,13.3017 0.0000 1,1 511.1120,1634.6973 Z"
     style="fill-rule:evenodd;fill:#ffec2d;fill-opacity:1"
     id="path19" />
  <path
     d="  M556.7685,1232.2333 A13.3017,13.3017 0.0000 0,1 570.0702,1245.5350 A13.3017,13.3017 0.0000 1,1 556.7685,1232.2333 Z"
     style="fill-rule:evenodd;fill:#ffec2d;fill-opacity:1"
     id="path21" />
  <path
     d="  M527.7200,629.4258 A13.3017,13.3017 0.0000 0,1 541.0217,642.7276 A13.3017,13.3017 0.0000 1,1 527.7200,629.4258 Z"
     style="fill-rule:evenodd;fill:#ffec2d;fill-opacity:1"
     id="path22" />
  <path
     d="  M1058.3259,862.7955 A13.3017,13.3017 0.0000 0,1 1071.6276,876.0972 A13.3017,13.3017 0.0000 1,1 1058.3259,862.7955 Z"
     style="fill-rule:evenodd;fill:#ffec2d;fill-opacity:1"
     id="path24" />
  <path
     d="  M1792.7785,1634.9090 A13.3017,13.3017 0.0000 0,1 1806.0802,1648.2107 A13.3017,13.3017 0.0000 1,1 1792.7785,1634.9090 Z"
     style="fill-rule:evenodd;fill:#ffec2d;fill-opacity:1"
     id="path26" />
  <path
     d="  M2343.8862,1866.8664 A13.3017,13.3017 0.0000 0,1 2357.1879,1880.1681 A13.3017,13.3017 0.0000 1,1 2343.8862,1866.8664 Z"
     style="fill-rule:evenodd;fill:#ffec2d;fill-opacity:1"
     id="path28" />
  <path
     d="m 2960.8669,1760.6861 a 13.3017,13.3017 0 0 1 13.3018,13.3018 13.3017,13.3017 0 1 1 -13.3018,-13.3018 z"
     style="opacity:1;fill:#ffec2d;fill-opacity:1;fill-rule:evenodd"
     id="path30" />
  <path
     d="m 2963.1671,1730.9803 a 35.99996,35.99996 0 0 1 36.0002,36.0002 35.99996,35.99996 0 1 1 -36.0002,-36.0002 z"
     style="fill:#ffec2d;fill-opacity:1;fill-rule:evenodd;stroke-width:2.70642"
     id="path30-9" />
  <path
     d="m 3185.4349,840.53694 a 35.99996,35.99996 0 0 1 36.0002,36.0002 35.99996,35.99996 0 1 1 -36.0002,-36.0002 z"
     style="fill:#ffec2d;fill-opacity:1;fill-rule:evenodd;stroke-width:2.70642"
     id="path30-9-2" />
  <path
     d="m 2291.2783,713.11898 a 35.99996,35.99996 0 0 1 36.0002,36.0002 35.99996,35.99996 0 1 1 -36.0002,-36.0002 z"
     style="fill:#ffec2d;fill-opacity:1;fill-rule:evenodd;stroke-width:2.70642"
     id="path30-9-11" />
  <path
     d="m 2084.3878,1745.33 a 35.99996,35.99996 0 0 1 36.0002,36.0002 35.99996,35.99996 0 1 1 -36.0002,-36.0002 z"
     style="fill:#ffec2d;fill-opacity:1;fill-rule:evenodd;stroke-width:2.70642"
     id="path30-9-1" />
  <path
     d="m 533.1468,1612.9421 a 35.99996,35.99996 0 0 1 36.0002,36.0002 35.99996,35.99996 0 1 1 -36.0002,-36.0002 z"
     style="fill:#ffec2d;fill-opacity:1;fill-rule:evenodd;stroke-width:2.70642"
     id="path30-9-8" />
  <path
     d="m 2204.7814,1926.8654 a 35.99996,35.99996 0 0 1 36.0002,36.0002 35.99996,35.99996 0 1 1 -36.0002,-36.0002 z"
     style="fill:#ffec2d;fill-opacity:1;fill-rule:evenodd;stroke-width:2.70642"
     id="path30-9-8-2" />
  <path
     d="  M3190.3690,856.2085 A13.3017,13.3017 0.0000 0,1 3203.6707,869.5102 A13.3017,13.3017 0.0000 1,1 3190.3690,856.2085 Z"
     style="fill-rule:evenodd;fill:#ffec2d;fill-opacity:1"
     id="path32" />
  <path
     d="  M3395.0697,901.9161 A13.3017,13.3017 0.0000 0,1 3408.3714,915.2178 A13.3017,13.3017 0.0000 1,1 3395.0697,901.9161 Z"
     style="fill-rule:evenodd;fill:#ffec2d;fill-opacity:1"
     id="path34" />
  <path
     d="  M2712.9518,634.5531 A13.3017,13.3017 0.0000 0,1 2726.2535,647.8548 A13.3017,13.3017 0.0000 1,1 2712.9518,634.5531 Z"
     style="fill-rule:evenodd;fill:#ffec2d;fill-opacity:1"
     id="path36" />
  <path
     d="  M2864.7192,552.6845 A13.3017,13.3017 0.0000 0,1 2878.0210,565.9862 A13.3017,13.3017 0.0000 1,1 2864.7192,552.6845 Z"
     style="fill-rule:evenodd;fill:#ffec2d;fill-opacity:1"
     id="path37" />
  <path
     d="  M2424.3305,865.2475 A13.3017,13.3017 0.0000 0,1 2437.6322,878.5492 A13.3017,13.3017 0.0000 1,1 2424.3305,865.2475 Z"
     style="fill-rule:evenodd;fill:#ffec2d;fill-opacity:1"
     id="path40" />
  <path
     d="  M2481.8264,901.7774 A13.3017,13.3017 0.0000 0,1 2495.1282,915.0791 A13.3017,13.3017 0.0000 1,1 2481.8264,901.7774 Z"
     style="fill-rule:evenodd;fill:#ffec2d;fill-opacity:1"
     id="path41" />
  <path
     d="  M2290.0860,731.4678 A17.0955,17.0955 0.0000 0,1 2307.1815,748.5633 A17.0955,17.0955 0.0000 1,1 2290.0860,731.4678 Z"
     style="fill-rule:evenodd;fill:#ffec2d;fill-opacity:1"
     id="path44" />
  <path
     d="  M2083.6759,136.6122 A13.3017,13.3017 0.0000 0,1 2096.9776,149.9139 A13.3017,13.3017 0.0000 1,1 2083.6759,136.6122 Z"
     style="fill-rule:evenodd;fill:#ffec2d;fill-opacity:1"
     id="path46" />
  <path
     d="  M2109.7392,397.1911 A13.3017,13.3017 0.0000 0,1 2123.0410,410.4928 A13.3017,13.3017 0.0000 1,1 2109.7392,397.1911 Z"
     style="fill-rule:evenodd;fill:#ffec2d;fill-opacity:1"
     id="path48" />
  <path
     d="  M2195.6403,1944.4434 A13.3017,13.3017 0.0000 0,1 2208.9421,1957.7451 A13.3017,13.3017 0.0000 1,1 2195.6403,1944.4434 Z"
     style="fill-rule:evenodd;fill:#ffec2d;fill-opacity:1"
     id="path50" />
  <path
     d="  M1615.2761,434.7680 A13.3017,13.3017 0.0000 0,1 1628.5778,448.0698 A13.3017,13.3017 0.0000 1,1 1615.2761,434.7680 Z"
     style="fill-rule:evenodd;fill:#ffec2d;fill-opacity:1"
     id="path52" />
</svg>
